<svg width="54" height="54" viewBox="0 0 54 54" fill="none" xmlns="http://www.w3.org/2000/svg">
<rect width="54" height="54" rx="27" fill="#EFEFEF"/>
<path d="M23.3999 16.2V17.4H17.3999V19.8H18.5999V35.4C18.5999 36.0365 18.8528 36.647 19.3028 37.0971C19.7529 37.5472 20.3634 37.8 20.9999 37.8H32.9999C33.6364 37.8 34.2469 37.5472 34.697 37.0971C35.147 36.647 35.3999 36.0365 35.3999 35.4V19.8H36.5999V17.4H30.5999V16.2H23.3999ZM20.9999 19.8H32.9999V35.4H20.9999V19.8ZM23.3999 22.2V33H25.7999V22.2H23.3999ZM28.1999 22.2V33H30.5999V22.2H28.1999Z" fill="#A2A2A2"/>
</svg>
