<svg width="54" height="54" viewBox="0 0 54 54" fill="none" xmlns="http://www.w3.org/2000/svg">
<rect width="54" height="54" rx="27" fill="#EBEBFF"/>
<path d="M14.3999 33.75C14.3999 34.5854 14.7318 35.3867 15.3225 35.9774C15.9133 36.5681 16.7145 36.9 17.5499 36.9H36.4499C37.2853 36.9 38.0866 36.5681 38.6773 35.9774C39.268 35.3867 39.5999 34.5854 39.5999 33.75V25.0875H14.3999V33.75ZM18.1124 29.475C18.1124 29.0275 18.2902 28.5982 18.6067 28.2818C18.9231 27.9653 19.3523 27.7875 19.7999 27.7875H22.4999C22.9475 27.7875 23.3767 27.9653 23.6931 28.2818C24.0096 28.5982 24.1874 29.0275 24.1874 29.475V30.6C24.1874 31.0476 24.0096 31.4768 23.6931 31.7932C23.3767 32.1097 22.9475 32.2875 22.4999 32.2875H19.7999C19.3523 32.2875 18.9231 32.1097 18.6067 31.7932C18.2902 31.4768 18.1124 31.0476 18.1124 30.6V29.475ZM36.4499 17.1H17.5499C16.7145 17.1 15.9133 17.4319 15.3225 18.0226C14.7318 18.6134 14.3999 19.4146 14.3999 20.25V21.7125H39.5999V20.25C39.5999 19.4146 39.268 18.6134 38.6773 18.0226C38.0866 17.4319 37.2853 17.1 36.4499 17.1Z" fill="#3356D0"/>
</svg>
