<svg width="84" height="83" viewBox="0 0 84 83" fill="none" xmlns="http://www.w3.org/2000/svg">
<path d="M24.4317 24.0562L19.3479 18.9275M51.5415 24.0562L56.6253 18.9275M19.3445 56.5541L24.4282 51.422M37.9849 17.219V10.375M17.6499 37.7408H10.875M58.8594 58.2245L72.0495 53.0163C72.3677 52.8889 72.6405 52.6691 72.8327 52.3853C73.0248 52.1014 73.1275 51.7665 73.1275 51.4237C73.1275 51.0809 73.0248 50.746 72.8327 50.4621C72.6405 50.1783 72.3677 49.9585 72.0495 49.8311L40.3538 37.3293C40.0453 37.2098 39.7086 37.183 39.385 37.252C39.0614 37.321 38.7649 37.4828 38.5319 37.7177C38.2989 37.9525 38.1394 38.2503 38.0729 38.5744C38.0065 38.8985 38.036 39.235 38.1578 39.5426L50.5455 71.5356C51.1058 72.9881 53.1393 72.9881 53.6995 71.5356L58.8594 58.2245Z" stroke="black" stroke-width="3" stroke-linecap="round" stroke-linejoin="round"/>
</svg>
