<svg width="414" height="270" viewBox="0 0 414 270" fill="none" xmlns="http://www.w3.org/2000/svg">
<ellipse cx="25" cy="23.0186" rx="25" ry="22.5" fill="#3D38F5"/>
<ellipse cx="130" cy="89.0186" rx="25" ry="22.5" fill="#3D38F5" fill-opacity="0.5"/>
<ellipse cx="65" cy="100.519" rx="12" ry="11" fill="#3D38F5" fill-opacity="0.2"/>
<path d="M123.665 186.358C110.932 186.358 99.5543 193.821 94.6808 205.371L92.6516 210.092L105.107 215.42L107.133 210.7C109.882 204.186 116.371 199.984 123.665 199.984C134.336 199.984 141.504 207.201 141.504 217.945V218.658C134.672 218.841 126.479 219.294 119.184 220.16C102.346 222.154 92.2965 231.397 92.2965 244.886C92.2965 252.069 94.9896 258.533 99.8816 263.058C104.474 267.31 110.734 269.482 117.516 269.482C127.047 269.482 135.274 267.208 141.504 262.459V269.482H155.037V217.945C155.037 199.642 141.844 186.358 123.665 186.358ZM117.516 256.166C112.124 256.166 105.827 253.114 105.827 244.886C105.827 241.582 107.007 239.269 109.65 237.383C112.226 235.547 116.173 234.235 120.768 233.692C127.495 232.895 135.071 232.467 141.46 232.29C140.793 248.26 132.946 256.166 117.516 256.166ZM27.5639 234.703H66.3231L79.3531 269.482H93.887L46.6346 148.519L0 269.482H14.5339L27.5639 234.703ZM46.9435 183.477L61.2273 221.096H32.6597L46.9435 183.477Z" fill="url(#paint0_linear_1401_2228)"/>
<path d="M299 269.481C283.283 269.481 268.429 266.461 254.438 260.419C240.446 254.378 228.229 246.136 217.787 235.694C207.345 225.252 199.103 213.036 193.062 199.044C187.021 185.052 184 170.198 184 154.481C184 138.573 187.117 123.623 193.35 109.631C199.583 95.6398 208.016 83.4689 218.65 73.1189C229.283 62.7689 241.692 54.5771 255.875 48.5434C270.058 42.5098 285.2 39.4891 301.3 39.4814C316.633 39.4814 331.104 42.1188 344.713 47.3934C358.321 52.6681 370.254 59.9514 380.512 69.2434C390.77 78.5354 398.916 89.5563 404.949 102.306C410.983 115.056 414 128.806 414 143.556C414 165.598 407.292 182.515 393.875 194.306C380.458 206.097 364.167 211.989 345 211.981H323.725C322 211.981 320.804 212.461 320.137 213.419C319.47 214.377 319.133 215.431 319.125 216.581C319.125 218.881 320.562 222.19 323.438 226.506C326.312 230.822 327.75 235.756 327.75 241.306C327.75 250.89 325.117 257.981 319.85 262.581C314.583 267.181 307.633 269.481 299 269.481ZM235.75 165.981C240.733 165.981 244.854 164.352 248.112 161.094C251.371 157.836 253 153.715 253 148.731C253 143.748 251.371 139.627 248.112 136.369C244.854 133.111 240.733 131.481 235.75 131.481C230.767 131.481 226.646 133.111 223.388 136.369C220.129 139.627 218.5 143.748 218.5 148.731C218.5 153.715 220.129 157.836 223.388 161.094C226.646 164.352 230.767 165.981 235.75 165.981ZM270.25 119.981C275.233 119.981 279.354 118.352 282.612 115.094C285.871 111.836 287.5 107.715 287.5 102.731C287.5 97.7481 285.871 93.6273 282.612 90.3689C279.354 87.1106 275.233 85.4814 270.25 85.4814C265.267 85.4814 261.146 87.1106 257.888 90.3689C254.629 93.6273 253 97.7481 253 102.731C253 107.715 254.629 111.836 257.888 115.094C261.146 118.352 265.267 119.981 270.25 119.981ZM327.75 119.981C332.733 119.981 336.854 118.352 340.112 115.094C343.371 111.836 345 107.715 345 102.731C345 97.7481 343.371 93.6273 340.112 90.3689C336.854 87.1106 332.733 85.4814 327.75 85.4814C322.767 85.4814 318.646 87.1106 315.388 90.3689C312.129 93.6273 310.5 97.7481 310.5 102.731C310.5 107.715 312.129 111.836 315.388 115.094C318.646 118.352 322.767 119.981 327.75 119.981ZM362.25 165.981C367.233 165.981 371.354 164.352 374.612 161.094C377.871 157.836 379.5 153.715 379.5 148.731C379.5 143.748 377.871 139.627 374.612 136.369C371.354 133.111 367.233 131.481 362.25 131.481C357.267 131.481 353.146 133.111 349.888 136.369C346.629 139.627 345 143.748 345 148.731C345 153.715 346.629 157.836 349.888 161.094C353.146 164.352 357.267 165.981 362.25 165.981ZM299 246.481C300.725 246.481 302.116 246.002 303.174 245.044C304.232 244.086 304.758 242.84 304.75 241.306C304.75 238.623 303.313 235.461 300.438 231.819C297.563 228.177 296.125 222.715 296.125 215.431C296.125 207.381 298.904 200.961 304.463 196.169C310.021 191.377 316.825 188.981 324.875 188.981H345C357.65 188.981 368.479 185.294 377.487 177.918C386.496 170.543 391 159.089 391 143.556C391 120.365 382.137 101.052 364.412 85.6194C346.687 70.1864 325.649 62.4738 301.3 62.4814C275.233 62.4814 253 71.3939 234.6 89.2189C216.2 107.044 207 128.798 207 154.481C207 179.973 215.962 201.681 233.887 219.606C251.812 237.531 273.516 246.489 299 246.481Z" fill="url(#paint1_linear_1401_2228)"/>
<defs>
<linearGradient id="paint0_linear_1401_2228" x1="3729.03" y1="168.369" x2="3729.03" y2="615.001" gradientUnits="userSpaceOnUse">
<stop stop-color="#3D38F5"/>
<stop offset="0.235577" stop-color="#DCBCDB"/>
</linearGradient>
<linearGradient id="paint1_linear_1401_2228" x1="299" y1="39.4814" x2="299" y2="269.481" gradientUnits="userSpaceOnUse">
<stop stop-color="#3D38F5"/>
<stop offset="1" stop-color="#DCBCDB"/>
</linearGradient>
</defs>
</svg>
