<svg width="43" height="42" viewBox="0 0 86 85" fill="none" xmlns="http://www.w3.org/2000/svg">
<g filter="url(#filter0_n_4046_7557)">
<path d="M66.6107 38.9219V19.7969C66.6107 10.3916 51.4297 9.80937 51.4297 19.7969" stroke="#3A35EB" stroke-width="7.5" stroke-linecap="round" stroke-linejoin="round"/>
<path d="M51.4323 33.7709V11.2969C51.4323 1.89162 36.2513 1.30937 36.2513 11.2969V18.9469M36.247 37.0094V19.7969C36.247 10.3916 20.3223 9.80937 20.3223 19.7969V46.5209" stroke="#3A35EB" stroke-width="7.5" stroke-linecap="round" stroke-linejoin="round"/>
<path d="M66.6099 30.8469C66.6099 20.8594 81.7909 21.4417 81.7909 30.8469V49.5469C81.7909 78.6297 40.1451 90.2534 21.1094 71.1964L7.4456 57.4264C1.11735 50.3629 9.72785 35.8959 20.3231 46.5209L24.5731 50.7709" stroke="#3A35EB" stroke-width="7.5" stroke-linecap="round" stroke-linejoin="round"/>
</g>
<defs>
<filter id="filter0_n_4046_7557" x="0.541016" y="0.270752" width="85" height="84" filterUnits="userSpaceOnUse" color-interpolation-filters="sRGB">
<feFlood flood-opacity="0" result="BackgroundImageFix"/>
<feBlend mode="normal" in="SourceGraphic" in2="BackgroundImageFix" result="shape"/>
<feTurbulence type="fractalNoise" baseFrequency="2 2" stitchTiles="stitch" numOctaves="3" result="noise" seed="2025" />
<feColorMatrix in="noise" type="luminanceToAlpha" result="alphaNoise" />
<feComponentTransfer in="alphaNoise" result="coloredNoise1">
<feFuncA type="discrete" tableValues="1 1 1 1 1 1 1 1 1 1 1 1 1 1 1 1 1 1 1 1 1 1 1 1 1 1 1 1 1 1 1 1 1 1 1 1 1 1 1 1 1 1 1 1 1 1 1 1 1 1 1 0 0 0 0 0 0 0 0 0 0 0 0 0 0 0 0 0 0 0 0 0 0 0 0 0 0 0 0 0 0 0 0 0 0 0 0 0 0 0 0 0 0 0 0 0 0 0 0 0 "/>
</feComponentTransfer>
<feComposite operator="in" in2="shape" in="coloredNoise1" result="noise1Clipped" />
<feFlood flood-color="rgba(36, 33, 154, 0.6)" result="color1Flood" />
<feComposite operator="in" in2="noise1Clipped" in="color1Flood" result="color1" />
<feMerge result="effect1_noise_4046_7557">
<feMergeNode in="shape" />
<feMergeNode in="color1" />
</feMerge>
</filter>
</defs>
</svg>
