<svg width="1200" height="550" viewBox="0 0 1200 550" fill="none" xmlns="http://www.w3.org/2000/svg">
<rect width="1200" height="550" fill="url(#paint0_linear_4492_7723)"/>
<ellipse opacity="0.3" cx="91.7109" cy="107" rx="52.5" ry="52" fill="url(#paint1_linear_4492_7723)" fill-opacity="0.5"/>
<circle opacity="0.3" cx="1032.5" cy="428.5" r="77.5" fill="url(#paint2_linear_4492_7723)" fill-opacity="0.5"/>
<circle opacity="0.3" cx="1119.5" cy="303.5" r="33.5" fill="url(#paint3_linear_4492_7723)" fill-opacity="0.5"/>
<rect opacity="0.3" x="172.563" y="143.182" width="69.4665" height="69.4665" rx="10" transform="rotate(15 172.563 143.182)" fill="url(#paint4_linear_4492_7723)" fill-opacity="0.5"/>
<path d="M426.075 498.314V514.479H424.686V506.017H422.436V513.669H421.086V498.752H422.436V504.834H424.686V498.314H426.075ZM412.29 509.991C416.058 507.895 417.601 504.937 417.839 501.594H412.907V500.41H419.234C419.221 504.526 417.781 508.409 413.126 511.007L412.29 509.991ZM441.718 498.327V510.145H440.291V498.327H441.718ZM428.743 503.42C428.743 501.092 430.569 499.459 432.987 499.459C435.404 499.459 437.217 501.092 437.217 503.42C437.217 505.773 435.404 507.406 432.987 507.393C430.569 507.406 428.743 505.773 428.743 503.42ZM430.145 503.42C430.132 505.027 431.353 506.146 432.987 506.146C434.594 506.146 435.829 505.027 435.829 503.42C435.829 501.838 434.594 500.706 432.987 500.706C431.353 500.706 430.132 501.838 430.145 503.42ZM431.276 514.119V508.936H432.704V512.936H442.22V514.119H431.276ZM457.863 498.314V507.946H456.435V503.715H453.169V502.532H456.435V498.314H457.863ZM444.527 506.66C446.932 505.786 448.642 503.6 448.642 501.285V500.681H444.99V499.497H453.696V500.681H450.083V501.272C450.083 503.381 451.703 505.387 454.069 506.197L453.323 507.342C451.504 506.686 450.096 505.329 449.395 503.664C448.7 505.554 447.202 507.065 445.273 507.792L444.527 506.66ZM447.086 511.457C447.074 509.554 449.131 508.448 452.5 508.448C455.857 508.448 457.914 509.554 457.914 511.457C457.914 513.36 455.857 514.453 452.5 514.466C449.131 514.453 447.074 513.36 447.086 511.457ZM448.501 511.457C448.488 512.627 450.018 513.334 452.5 513.321C454.969 513.334 456.5 512.627 456.5 511.457C456.5 510.274 454.969 509.566 452.5 509.566C450.018 509.566 448.488 510.274 448.501 511.457ZM475.358 511.213V512.408H460.556V511.213H467.205V507.728H462.305V499.459H463.732V502.378H472.13V499.459H473.544V507.728H468.619V511.213H475.358ZM463.732 506.557H472.13V503.548H463.732V506.557ZM496.124 511.213V512.408H481.323V511.213H487.971V507.728H483.071V499.459H484.499V502.378H492.896V499.459H494.311V507.728H489.386V511.213H496.124ZM484.499 506.557H492.896V503.548H484.499V506.557ZM511.381 500.706V501.889H498.149V500.706H504.077V498.584H505.479V500.706H511.381ZM497.416 512.576V511.393H504.077V509.123C501.196 508.975 499.447 507.856 499.46 506.043C499.447 504.114 501.479 502.982 504.771 502.995C508.038 502.982 510.095 504.114 510.095 506.043C510.095 507.85 508.333 508.969 505.479 509.123V511.393H512.217V512.576H497.416ZM500.901 506.043C500.888 507.265 502.367 507.972 504.771 507.985C507.163 507.972 508.642 507.265 508.642 506.043C508.642 504.834 507.163 504.127 504.771 504.127C502.367 504.127 500.888 504.834 500.901 506.043ZM527.359 498.314V514.479H525.983V498.314H527.359ZM513.715 505.284C513.715 501.851 515.078 499.677 517.174 499.677C519.141 499.677 520.472 501.568 520.652 504.616H522.742V498.662H524.118V513.656H522.742V505.799H520.659C520.517 508.949 519.173 510.917 517.174 510.904C515.078 510.917 513.715 508.731 513.715 505.284ZM515.052 505.284C515.039 507.908 515.875 509.566 517.174 509.554C518.498 509.566 519.334 507.908 519.334 505.284C519.334 502.661 518.498 501.015 517.174 501.015C515.875 501.015 515.039 502.661 515.052 505.284ZM548.086 498.314V514.479H546.723V505.992H544.357V513.63H543.033V498.674H544.357V504.808H546.723V498.314H548.086ZM534.867 510.48V500.295H540.924V501.465H536.294V509.258C538.525 509.251 540.062 509.161 541.849 508.795L541.978 509.991C540.036 510.402 538.39 510.467 535.908 510.48H534.867ZM563.009 498.327V503.651H565.44V504.86H563.009V510.441H561.582V498.327H563.009ZM550.407 501.478V500.308H554.522V498.327H555.936V500.308H560.039V501.478H550.407ZM551.333 505.387C551.32 503.548 552.889 502.365 555.229 502.365C557.531 502.365 559.1 503.548 559.113 505.387C559.1 507.2 557.531 508.371 555.229 508.371C552.889 508.371 551.32 507.2 551.333 505.387ZM552.696 505.387C552.683 506.519 553.699 507.252 555.229 507.239C556.734 507.252 557.75 506.519 557.763 505.387C557.75 504.23 556.734 503.484 555.229 503.484C553.699 503.484 552.683 504.23 552.696 505.387ZM552.889 514.119V509.464H554.303V512.936H563.755V514.119H552.889ZM571.932 499.832H573.9L578.336 510.672H578.49L582.927 499.832H584.894V513H583.351V503.06H583.223L579.133 513H577.68L573.591 503.047H573.475V513H571.932V499.832ZM591.639 513.206C588.951 513.206 587.138 511.174 587.138 508.113C587.138 505.027 588.951 502.995 591.639 502.995C594.327 502.995 596.127 505.027 596.127 508.113C596.127 511.174 594.327 513.206 591.639 513.206ZM588.707 508.113C588.707 510.081 589.633 511.817 591.639 511.817C593.632 511.817 594.558 510.081 594.558 508.113C594.558 506.146 593.632 504.384 591.639 504.384C589.633 504.384 588.707 506.146 588.707 508.113ZM602.204 513.206C599.516 513.206 597.703 511.174 597.703 508.113C597.703 505.027 599.516 502.995 602.204 502.995C604.892 502.995 606.692 505.027 606.692 508.113C606.692 511.174 604.892 513.206 602.204 513.206ZM599.272 508.113C599.272 510.081 600.198 511.817 602.204 511.817C604.197 511.817 605.123 510.081 605.123 508.113C605.123 506.146 604.197 504.384 602.204 504.384C600.198 504.384 599.272 506.146 599.272 508.113ZM608.731 513V503.124H610.249V504.68H610.377C610.789 503.612 611.74 502.995 613.026 502.995C614.325 502.995 615.2 503.612 615.675 504.68H615.778C616.28 503.651 617.321 502.995 618.736 502.995C620.498 502.995 621.758 504.075 621.758 506.39V513H620.189V506.416C620.189 504.963 619.276 504.397 618.196 504.397C616.82 504.397 616.035 505.323 616.035 506.583V513H614.454V506.262C614.454 505.143 613.656 504.397 612.512 504.397C611.342 504.397 610.3 505.4 610.3 506.84V513H608.731ZM630.497 508.949V503.124H632.053V513H630.497V511.328H630.395C629.932 512.331 628.954 513.129 627.463 513.129C625.598 513.129 624.261 511.907 624.261 509.399V503.124H625.829V509.284C625.829 510.711 626.717 511.624 627.977 511.624C629.096 511.624 630.497 510.788 630.497 508.949ZM639.247 499.497C641.793 499.497 643.593 501.041 643.606 503.291C643.593 505.541 641.793 507.085 639.247 507.085C636.7 507.085 634.874 505.541 634.887 503.291C634.874 501.041 636.7 499.497 639.247 499.497ZM634.051 509.721C637.035 509.734 641.15 509.708 644.725 509.181L644.841 510.235C641.137 510.93 637.163 510.942 634.244 510.942L634.051 509.721ZM636.289 503.291C636.276 504.796 637.523 505.837 639.247 505.837C640.957 505.837 642.204 504.796 642.204 503.291C642.204 501.786 640.957 500.745 639.247 500.745C637.523 500.745 636.276 501.786 636.289 503.291ZM645.792 514.505V498.314H647.22V514.505H645.792ZM668.127 498.314V507.946H666.7V503.715H663.434V502.532H666.7V498.314H668.127ZM654.792 506.66C657.197 505.786 658.907 503.6 658.907 501.285V500.681H655.255V499.497H663.961V500.681H660.347V501.272C660.347 503.381 661.968 505.387 664.334 506.197L663.588 507.342C661.768 506.686 660.36 505.329 659.659 503.664C658.965 505.554 657.467 507.065 655.538 507.792L654.792 506.66ZM657.351 511.457C657.338 509.554 659.396 508.448 662.765 508.448C666.121 508.448 668.179 509.554 668.179 511.457C668.179 513.36 666.121 514.453 662.765 514.466C659.396 514.453 657.338 513.36 657.351 511.457ZM658.766 511.457C658.753 512.627 660.283 513.334 662.765 513.321C665.234 513.334 666.764 512.627 666.764 511.457C666.764 510.274 665.234 509.566 662.765 509.566C660.283 509.566 658.753 510.274 658.766 511.457ZM675.605 501.812C675.605 503.728 676.878 505.593 678.935 506.352L678.241 507.458C676.666 506.821 675.534 505.619 674.962 504.153C674.402 505.741 673.264 507.052 671.657 507.74L670.949 506.673C673.007 505.824 674.241 503.87 674.254 501.812V501.619H671.271V500.462H674.254V498.507H675.605V500.462H678.524V501.619H675.605V501.812ZM673.65 510.261V509.091H684.542V514.479H683.14V510.261H673.65ZM679.694 508.139V498.623H681.07V502.648H683.192V498.327H684.542V508.216H683.192V503.831H681.07V508.139H679.694ZM694.27 498.597C697.87 498.597 699.979 499.587 699.979 501.388C699.979 503.214 697.87 504.204 694.27 504.217C690.669 504.204 688.547 503.214 688.547 501.388C688.547 499.587 690.669 498.597 694.27 498.597ZM686.914 506.467V505.31H701.651V506.467H686.914ZM688.701 508.962V507.869H699.748V511.483H690.142V513.167H700.236V514.299H688.74V510.428H698.346V508.962H688.701ZM690.039 501.388C690.026 502.507 691.595 503.124 694.27 503.124C696.957 503.124 698.526 502.507 698.526 501.388C698.526 500.32 696.957 499.677 694.27 499.677C691.595 499.677 690.026 500.32 690.039 501.388ZM720.296 498.327V503.214H722.713V504.41H720.296V509.155H718.868V498.327H720.296ZM707.603 507.509C708.896 507.509 710.407 507.509 711.988 507.458V506.268C710.104 506.101 708.889 505.233 708.902 503.895C708.889 502.417 710.407 501.504 712.683 501.516C714.972 501.504 716.463 502.417 716.476 503.895C716.463 505.22 715.287 506.088 713.416 506.268V507.406C714.927 507.329 716.451 507.207 717.865 506.995L717.981 508.036C714.483 508.653 710.612 508.679 707.77 508.679L707.603 507.509ZM708.015 500.886V499.793H711.988V498.186H713.416V499.793H717.376V500.886H708.015ZM709.596 511.11V509.965H720.296V514.479H718.868V511.11H709.596ZM710.265 503.895C710.252 504.731 711.191 505.31 712.683 505.297C714.174 505.31 715.113 504.731 715.113 503.895C715.113 503.034 714.174 502.507 712.683 502.519C711.191 502.507 710.252 503.034 710.265 503.895ZM737.122 498.327V510.145H735.694V498.327H737.122ZM724.146 503.42C724.146 501.092 725.972 499.459 728.39 499.459C730.808 499.459 732.621 501.092 732.621 503.42C732.621 505.773 730.808 507.406 728.39 507.393C725.972 507.406 724.146 505.773 724.146 503.42ZM725.548 503.42C725.535 505.027 726.757 506.146 728.39 506.146C729.997 506.146 731.232 505.027 731.232 503.42C731.232 501.838 729.997 500.706 728.39 500.706C726.757 500.706 725.535 501.838 725.548 503.42ZM726.68 514.119V508.936H728.107V512.936H737.623V514.119H726.68ZM752.379 498.314V504.976H755.079V506.172H752.379V514.479H750.964V498.314H752.379ZM739.776 502.095V500.912H743.93V498.507H745.358V500.912H749.395V502.095H739.776ZM740.702 507.149C740.69 504.963 742.361 503.432 744.663 503.432C746.952 503.432 748.611 504.963 748.624 507.149C748.611 509.335 746.952 510.852 744.663 510.852C742.361 510.852 740.69 509.335 740.702 507.149ZM742.065 507.149C742.053 508.615 743.159 509.657 744.663 509.644C746.155 509.657 747.248 508.615 747.261 507.149C747.248 505.683 746.155 504.628 744.663 504.628C743.159 504.628 742.053 505.683 742.065 507.149ZM760.756 502.905C760.756 505.477 762.016 508.255 764.164 509.528L763.341 510.634C761.779 509.695 760.666 507.965 760.094 506.004C759.502 508.146 758.306 509.997 756.693 510.981L755.78 509.914C758.017 508.602 759.38 505.734 759.38 502.97V499.832H760.756V502.905ZM762.377 505.323V504.114H765.116V498.662H766.466V513.656H765.116V505.323H762.377ZM768.433 514.479V498.314H769.809V514.479H768.433ZM786.854 511.2V512.396H772.053V511.2H775.718V506.84C774.342 506.12 773.506 504.956 773.506 503.497C773.506 500.989 775.962 499.343 779.408 499.33C782.868 499.343 785.324 500.989 785.324 503.497C785.324 504.937 784.514 506.082 783.176 506.802V511.2H786.854ZM774.882 503.497C774.882 505.297 776.759 506.506 779.408 506.506C782.045 506.506 783.948 505.297 783.948 503.497C783.948 501.684 782.045 500.488 779.408 500.5C776.759 500.488 774.882 501.684 774.882 503.497ZM777.119 511.2H781.736V507.361C781.035 507.541 780.251 507.638 779.408 507.638C778.579 507.638 777.814 507.541 777.119 507.367V511.2Z" fill="white"/>
<path d="M440.706 288.35V341.939H432.676V314.959H428.568V339.648H420.806V289.753H428.568V308.229H432.676V288.35H440.706ZM393.537 325.28C403.92 319.108 408.482 311.821 409.556 301.561H396.447V294.873H417.751C417.751 310.231 413.375 322.266 398.367 331.06L393.537 325.28ZM491.093 288.432V326.704H482.65V288.432H491.093ZM446.752 305.339C446.732 297.453 453.296 291.714 461.595 291.714C469.893 291.714 476.416 297.453 476.416 305.339C476.416 313.369 469.893 319.046 461.595 319.067C453.296 319.046 446.732 313.369 446.752 305.339ZM454.803 341.093V322.865H463.308V334.363H492.415V341.093H454.803ZM454.968 305.339C454.947 309.529 457.796 311.759 461.595 311.759C465.248 311.759 468.097 309.529 468.097 305.339C468.097 301.293 465.248 299.001 461.595 299.022C457.796 299.001 454.947 301.293 454.968 305.339ZM543.112 288.35V320.161H534.731V307.94H527.175V301.128H534.731V288.35H543.112ZM497.222 313.679C505.892 310.851 509.443 304.327 509.856 298.093H499.596V291.405H528.703V298.093H518.526C518.918 303.873 522.365 309.715 530.499 312.378L526.391 318.984C520.59 317.126 516.647 313.472 514.315 308.91C511.982 314.071 507.853 318.241 501.578 320.346L497.222 313.679ZM506.078 331.617C506.078 325.053 513.138 321.193 524.615 321.172C536.176 321.193 543.235 325.053 543.235 331.617C543.235 338.161 536.176 342.042 524.615 342.042C513.138 342.042 506.078 338.161 506.078 331.617ZM514.459 331.617C514.438 334.404 517.886 335.664 524.615 335.664C531.407 335.664 534.875 334.404 534.896 331.617C534.875 328.789 531.407 327.53 524.615 327.53C517.886 327.53 514.438 328.789 514.459 331.617ZM598.371 329.12V335.911H549.426V329.12H569.636V319.727H554.422V291.653H562.823V299.559H584.746V291.653H593.107V319.727H577.955V329.12H598.371ZM562.823 313.039H584.746V306.185H562.823V313.039ZM646.611 288.35V342.083H638.148V315.371H629.168V308.683H638.148V288.35H646.611ZM600.68 325.631C609.578 321.709 613.19 312.605 613.231 304.967V303.564H602.518V296.937H613.293V289.65H621.674V296.937H632.12V303.564H621.633V304.967C621.613 312.316 625.328 320.966 634.329 324.867L629.89 331.225C623.883 328.81 619.817 323.959 617.484 318.2C615.213 324.351 611.147 329.533 605.098 332.072L600.68 325.631ZM697.824 288.35V342.083H689.443V288.35H697.824ZM655.527 299.435V292.726H681.124V313.844H664.217V322.782C672.165 322.7 678.771 322.266 686.058 321.028L686.76 327.799C678.317 329.367 670.431 329.677 660.44 329.677H655.547V307.3H672.537V299.435H655.527ZM729.406 320.904C740.615 320.883 747.592 324.764 747.613 331.39C747.592 338.099 740.615 342.042 729.406 342.042C717.99 342.042 710.848 338.099 710.868 331.39C710.848 324.764 717.99 320.883 729.406 320.904ZM705.79 317.043V291.756H714.109V298.073H723.605V291.756H732.028V317.043H705.79ZM714.109 310.5H723.605V304.554H714.109V310.5ZM719.291 331.39C719.27 334.198 722.738 335.519 729.406 335.519C735.97 335.519 739.294 334.198 739.294 331.39C739.294 328.583 735.97 327.386 729.406 327.386C722.738 327.386 719.27 328.583 719.291 331.39ZM738.654 319.748V288.35H747.097V300.488H754.033V307.465H747.097V319.748H738.654ZM787.844 293.407V299.992H777.337C777.708 304.967 781.342 310.169 789.929 312.234L786.069 318.819C779.958 317.291 775.747 313.988 773.27 309.818C770.834 314.422 766.582 318.034 760.286 319.727L756.405 313.307C764.91 310.892 768.481 305.401 768.832 299.992H758.345V293.407H768.852V288.267H777.378V293.407H787.844ZM764.868 341.382V321.791H801.097V341.382H764.868ZM773.146 334.673H792.86V328.5H773.146V334.673ZM792.654 319.686V288.432H801.097V319.686H792.654Z" fill="white"/>
<line x1="394.164" y1="257.397" x2="467.483" y2="257.397" stroke="white" stroke-width="2.32759"/>
<path d="M484.633 266.94V247.187H491.693C496.274 247.187 498.531 249.946 498.531 253.591C498.531 257.237 496.264 260.015 491.683 260.015H487.632V266.94H484.633ZM487.632 257.459H491.384C494.297 257.459 495.512 255.819 495.512 253.591C495.512 251.364 494.297 249.762 491.374 249.762H487.632V257.459ZM505.639 266.94V252.125H508.455V254.488H508.609C509.149 252.887 510.635 251.904 512.361 251.904C512.728 251.904 513.306 251.933 513.605 251.971V254.749C513.364 254.691 512.679 254.575 512.091 254.575C510.056 254.575 508.551 255.974 508.551 257.912V266.94H505.639ZM519.975 266.94V252.125H522.888V266.94H519.975ZM519.609 248.123C519.609 247.168 520.438 246.396 521.451 246.396C522.444 246.396 523.274 247.168 523.274 248.123C523.274 249.078 522.444 249.849 521.451 249.849C520.438 249.849 519.609 249.078 519.609 248.123ZM543.331 252.125L537.95 266.94H534.835L529.462 252.125H532.587L536.32 263.506H536.474L540.216 252.125H543.331ZM548.772 262.754C548.772 259.388 551.646 258.52 554.308 258.327C555.311 258.259 557.568 258.144 558.205 258.124V256.919C558.205 255.25 557.173 254.286 555.186 254.286C553.479 254.286 552.437 255.067 552.138 256.167H549.235C549.505 253.717 551.801 251.933 555.292 251.933C557.655 251.933 561.108 252.801 561.108 257.102V266.94H558.272V264.914H558.156C557.597 266.033 556.227 267.268 553.778 267.268C550.961 267.268 548.772 265.657 548.772 262.754ZM551.627 262.792C551.627 264.22 552.794 264.943 554.424 264.943C556.806 264.943 558.214 263.352 558.214 261.597V260.246C557.549 260.285 555.427 260.43 554.723 260.478C552.823 260.613 551.627 261.336 551.627 262.792ZM575.081 267.239C570.77 267.239 568.156 264.066 568.156 259.6C568.156 255.077 570.867 251.933 575.052 251.933C578.418 251.933 580.868 253.919 581.167 256.919H578.341C578.033 255.53 576.933 254.373 575.091 254.373C572.689 254.373 571.088 256.369 571.088 259.533C571.088 262.764 572.66 264.77 575.091 264.77C576.74 264.77 577.975 263.844 578.341 262.243H581.167C580.858 265.126 578.582 267.239 575.081 267.239ZM589.917 272.495C589.319 272.495 588.74 272.476 588.354 272.437L588.373 269.997C588.701 270.026 589.261 270.036 589.675 270.036C590.572 270.036 591.334 269.978 592.019 268.107L592.386 267.142L586.956 252.125H590.071L593.803 263.612H593.958L597.709 252.125H600.825L594.72 268.907C593.861 271.251 592.357 272.495 589.917 272.495ZM618.636 266.94V247.187H625.696C630.278 247.187 632.534 249.946 632.534 253.591C632.534 257.237 630.268 260.015 625.687 260.015H621.636V266.94H618.636ZM621.636 257.459H625.388C628.3 257.459 629.516 255.819 629.516 253.591C629.516 251.364 628.3 249.762 625.378 249.762H621.636V257.459ZM645.711 267.239C641.525 267.239 638.786 264.181 638.786 259.6C638.786 254.99 641.525 251.933 645.711 251.933C649.887 251.933 652.616 254.99 652.616 259.6C652.616 264.181 649.887 267.239 645.711 267.239ZM641.718 259.59C641.718 262.426 643.01 264.808 645.72 264.808C648.402 264.808 649.684 262.426 649.684 259.59C649.684 256.765 648.402 254.353 645.72 254.353C643.01 254.353 641.718 256.765 641.718 259.59ZM662.592 247.187V266.94H659.68V247.187H662.592ZM670.334 266.94V252.125H673.246V266.94H670.334ZM669.967 248.123C669.967 247.168 670.797 246.396 671.809 246.396C672.803 246.396 673.632 247.168 673.632 248.123C673.632 249.078 672.803 249.849 671.809 249.849C670.797 249.849 669.967 249.078 669.967 248.123ZM687.247 267.239C682.936 267.239 680.322 264.066 680.322 259.6C680.322 255.077 683.033 251.933 687.218 251.933C690.584 251.933 693.034 253.919 693.333 256.919H690.507C690.199 255.53 689.099 254.373 687.257 254.373C684.855 254.373 683.254 256.369 683.254 259.533C683.254 262.764 684.826 264.77 687.257 264.77C688.906 264.77 690.141 263.844 690.507 262.243H693.333C693.024 265.126 690.748 267.239 687.247 267.239ZM702.083 272.495C701.485 272.495 700.906 272.476 700.52 272.437L700.539 269.997C700.867 270.026 701.427 270.036 701.841 270.036C702.738 270.036 703.5 269.978 704.185 268.107L704.552 267.142L699.122 252.125H702.237L705.969 263.612H706.124L709.875 252.125H712.991L706.886 268.907C706.027 271.251 704.523 272.495 702.083 272.495Z" fill="white"/>
<line x1="729.336" y1="257.397" x2="802.655" y2="257.397" stroke="white" stroke-width="2.32759"/>
<path d="M596.663 200.371H603.646V179.422H596.663V200.371ZM600.155 172.44C601.144 172.44 601.974 172.104 602.644 171.434C603.314 170.764 603.648 169.935 603.646 168.948C603.644 167.961 603.309 167.133 602.641 166.462C601.973 165.792 601.144 165.457 600.155 165.457C599.165 165.457 598.337 165.792 597.669 166.462C597.001 167.133 596.666 167.961 596.663 168.948C596.661 169.935 596.996 170.765 597.669 171.438C598.341 172.11 599.17 172.444 600.155 172.44ZM600.155 217.828C592.066 215.791 585.388 211.15 580.121 203.904C574.854 196.658 572.221 188.614 572.224 179.772V158.474L600.155 148L628.086 158.474V179.772C628.086 188.616 625.453 196.662 620.188 203.907C614.923 211.153 608.245 215.793 600.155 217.828ZM600.155 210.496C606.206 208.575 611.211 204.735 615.168 198.974C619.124 193.213 621.103 186.813 621.103 179.772V163.275L600.155 155.419L579.206 163.275V179.772C579.206 186.813 581.185 193.213 585.142 198.974C589.099 204.735 594.103 208.575 600.155 210.496Z" fill="url(#paint5_linear_4492_7723)"/>
<defs>
<linearGradient id="paint0_linear_4492_7723" x1="9.53975" y1="1.77548e-06" x2="1260.21" y2="292.969" gradientUnits="userSpaceOnUse">
<stop stop-color="#667CE8"/>
<stop offset="1" stop-color="#754CA4"/>
</linearGradient>
<linearGradient id="paint1_linear_4492_7723" x1="91.7109" y1="55" x2="91.7109" y2="159" gradientUnits="userSpaceOnUse">
<stop offset="0.278846" stop-color="white"/>
<stop offset="1" stop-color="#CFCEFF" stop-opacity="0.6"/>
</linearGradient>
<linearGradient id="paint2_linear_4492_7723" x1="1032.5" y1="351" x2="1032.5" y2="506" gradientUnits="userSpaceOnUse">
<stop offset="0.278846" stop-color="white"/>
<stop offset="1" stop-color="#CFCEFF" stop-opacity="0.6"/>
</linearGradient>
<linearGradient id="paint3_linear_4492_7723" x1="1119.5" y1="270" x2="1119.5" y2="337" gradientUnits="userSpaceOnUse">
<stop offset="0.278846" stop-color="white"/>
<stop offset="1" stop-color="#CFCEFF" stop-opacity="0.6"/>
</linearGradient>
<linearGradient id="paint4_linear_4492_7723" x1="207.297" y1="143.182" x2="207.297" y2="212.648" gradientUnits="userSpaceOnUse">
<stop offset="0.278846" stop-color="white"/>
<stop offset="1" stop-color="#CFCEFF" stop-opacity="0.6"/>
</linearGradient>
<linearGradient id="paint5_linear_4492_7723" x1="543.129" y1="152.073" x2="632.741" y2="215.5" gradientUnits="userSpaceOnUse">
<stop stop-color="#C5C3FF"/>
<stop offset="1" stop-color="#E8E8FF"/>
</linearGradient>
</defs>
</svg>
