<svg width="1195" height="390" viewBox="0 0 1195 390" fill="none" xmlns="http://www.w3.org/2000/svg">
<path d="M0 0H1195V390H0V0Z" fill="url(#paint0_linear_4490_7757)"/>
<path d="M111 85C111 106.539 93.5391 124 72 124C50.4609 124 33 106.539 33 85C33 63.4609 50.4609 46 72 46C93.5391 46 111 63.4609 111 85Z" fill="url(#paint1_linear_4490_7757)" fill-opacity="0.5"/>
<path d="M1130 284.5C1130 317.361 1103.36 344 1070.5 344C1037.64 344 1011 317.361 1011 284.5C1011 251.639 1037.64 225 1070.5 225C1103.36 225 1130 251.639 1130 284.5Z" fill="url(#paint2_linear_4490_7757)" fill-opacity="0.5"/>
<path d="M1163 215.5C1163 224.613 1155.61 232 1146.5 232C1137.39 232 1130 224.613 1130 215.5C1130 206.387 1137.39 199 1146.5 199C1155.61 199 1163 206.387 1163 215.5Z" fill="url(#paint3_linear_4490_7757)" fill-opacity="0.5"/>
<path d="M166.326 108.659C167.755 103.325 173.239 100.159 178.573 101.588L251.434 121.111C256.769 122.541 259.934 128.024 258.505 133.359L238.982 206.219C237.553 211.554 232.069 214.72 226.735 213.29L153.874 193.767C148.539 192.338 145.374 186.855 146.803 181.52L166.326 108.659Z" fill="url(#paint4_linear_4490_7757)" fill-opacity="0.5"/>
<path d="M447.422 246.375V260.266H446.219V253H444.297V259.578H443.125V246.75H444.297V251.984H446.219V246.375H447.422ZM441.547 248.188C441.531 251.719 440.297 255.062 436.297 257.281L435.578 256.422C438.805 254.625 440.141 252.078 440.344 249.203H436.109V248.188H441.547Z" fill="white"/>
<path d="M460.859 246.391V256.547H459.641V246.391H460.859ZM461.297 258.938V259.969H451.891V255.516H453.109V258.938H461.297ZM453.359 247.359C455.438 247.359 457 248.766 457 250.766C457 252.797 455.438 254.188 453.359 254.188C451.281 254.188 449.719 252.797 449.719 250.766C449.719 248.766 451.281 247.359 453.359 247.359ZM453.359 248.438C451.953 248.438 450.906 249.406 450.922 250.766C450.906 252.156 451.953 253.109 453.359 253.109C454.734 253.109 455.797 252.156 455.797 250.766C455.797 249.406 454.734 248.438 453.359 248.438Z" fill="white"/>
<path d="M474.734 246.375V254.656H473.5V251.016H470.703V250H473.5V246.375H474.734ZM470.125 255.094C473.016 255.094 474.781 256.031 474.781 257.672C474.781 259.312 473.016 260.25 470.125 260.266C467.234 260.25 465.469 259.312 465.469 257.672C465.469 256.031 467.234 255.094 470.125 255.094ZM470.125 256.047C468 256.047 466.672 256.656 466.688 257.672C466.672 258.672 468 259.281 470.125 259.281C472.25 259.281 473.562 258.672 473.562 257.672C473.562 256.656 472.25 256.047 470.125 256.047ZM468.047 248.922C468.047 250.734 469.438 252.453 471.469 253.156L470.828 254.141C469.266 253.578 468.055 252.414 467.469 250.969C466.859 252.602 465.57 253.906 463.922 254.531L463.281 253.547C465.344 252.797 466.812 250.922 466.812 248.938V248.422H463.672V247.391H471.156V248.422H468.047V248.922Z" fill="white"/>
<path d="M489.766 257.469V258.484H477.047V257.469H482.766V254.469H478.547V247.359H479.781V249.875H487V247.359H488.203V254.469H483.969V257.469H489.766ZM479.781 253.469H487V250.875H479.781V253.469Z" fill="white"/>
<path d="M507.609 257.469V258.484H494.891V257.469H500.609V254.469H496.391V247.359H497.625V249.875H504.844V247.359H506.047V254.469H501.812V257.469H507.609ZM497.625 253.469H504.844V250.875H497.625V253.469Z" fill="white"/>
<path d="M520.719 248.438V249.453H509.344V248.438H514.438V246.609H515.641V248.438H520.719ZM521.438 257.625V258.641H508.719V257.625H514.438V255.672C511.969 255.539 510.469 254.578 510.484 253.016C510.469 251.359 512.219 250.391 515.047 250.406C517.844 250.391 519.609 251.359 519.609 253.016C519.609 254.578 518.094 255.539 515.641 255.672V257.625H521.438ZM515.047 251.375C512.969 251.375 511.703 251.984 511.719 253.016C511.703 254.078 512.969 254.672 515.047 254.688C517.094 254.672 518.359 254.078 518.359 253.016C518.359 251.984 517.094 251.375 515.047 251.375Z" fill="white"/>
<path d="M534.453 246.375V260.266H533.266V246.375H534.453ZM531.656 246.672V259.562H530.484V252.812H528.703C528.57 255.516 527.422 257.203 525.703 257.203C523.891 257.203 522.719 255.328 522.719 252.375C522.719 249.422 523.891 247.547 525.703 247.547C527.391 247.547 528.531 249.18 528.688 251.797H530.484V246.672H531.656ZM525.703 248.703C524.578 248.703 523.859 250.109 523.875 252.375C523.859 254.625 524.578 256.047 525.703 256.031C526.828 256.047 527.547 254.625 527.547 252.375C527.547 250.109 526.828 248.703 525.703 248.703Z" fill="white"/>
<path d="M552.266 246.375V260.266H551.094V252.984H549.047V259.547H547.922V246.688H549.047V251.969H551.094V246.375H552.266ZM546.109 248.078V249.094H542.125V255.781C544.039 255.773 545.367 255.703 546.906 255.391L547.016 256.422C545.344 256.766 543.922 256.828 541.797 256.828H540.906V248.078H546.109Z" fill="white"/>
<path d="M565.078 246.391V250.969H567.172V252H565.078V256.797H563.859V246.391H565.078ZM562.531 248.094V249.094H554.25V248.094H557.781V246.391H559V248.094H562.531ZM558.391 249.859C560.375 249.859 561.719 250.875 561.734 252.453C561.719 254.016 560.375 255.016 558.391 255.016C556.391 255.016 555.031 254.016 555.047 252.453C555.031 250.875 556.391 249.859 558.391 249.859ZM558.391 250.828C557.078 250.828 556.203 251.469 556.219 252.453C556.203 253.438 557.078 254.062 558.391 254.047C559.688 254.062 560.562 253.438 560.578 252.453C560.562 251.469 559.688 250.828 558.391 250.828ZM565.719 258.938V259.969H556.391V255.969H557.594V258.938H565.719Z" fill="white"/>
<path d="M572.75 247.688H574.438L578.25 257H578.391L582.203 247.688H583.891V259H582.562V250.453H582.453L578.938 259H577.688L574.172 250.453H574.078V259H572.75V247.688Z" fill="white"/>
<path d="M589.688 259.172C587.375 259.172 585.812 257.438 585.812 254.797C585.812 252.156 587.375 250.406 589.688 250.406C591.984 250.406 593.531 252.156 593.531 254.797C593.531 257.438 591.984 259.172 589.688 259.172ZM589.688 257.984C591.391 257.984 592.188 256.484 592.188 254.797C592.188 253.109 591.391 251.594 589.688 251.594C587.953 251.594 587.156 253.109 587.156 254.797C587.156 256.484 587.953 257.984 589.688 257.984Z" fill="white"/>
<path d="M598.766 259.172C596.453 259.172 594.891 257.438 594.891 254.797C594.891 252.156 596.453 250.406 598.766 250.406C601.062 250.406 602.609 252.156 602.609 254.797C602.609 257.438 601.062 259.172 598.766 259.172ZM598.766 257.984C600.469 257.984 601.266 256.484 601.266 254.797C601.266 253.109 600.469 251.594 598.766 251.594C597.031 251.594 596.234 253.109 596.234 254.797C596.234 256.484 597.031 257.984 598.766 257.984Z" fill="white"/>
<path d="M604.375 259V250.516H605.672V251.844H605.781C606.141 250.938 606.953 250.406 608.062 250.406C609.172 250.406 609.922 250.938 610.328 251.844H610.422C610.859 250.969 611.75 250.406 612.969 250.406C614.484 250.406 615.562 251.328 615.562 253.328V259H614.219V253.344C614.219 252.094 613.422 251.609 612.5 251.609C611.312 251.609 610.641 252.406 610.641 253.484V259H609.281V253.203C609.281 252.25 608.594 251.609 607.625 251.609C606.609 251.609 605.719 252.469 605.719 253.703V259H604.375Z" fill="white"/>
<path d="M623.078 255.516V250.516H624.406V259H623.078V257.562H622.984C622.578 258.422 621.75 259.109 620.469 259.109C618.859 259.109 617.719 258.062 617.719 255.906V250.516H619.062V255.812C619.062 257.031 619.828 257.812 620.906 257.812C621.859 257.812 623.078 257.094 623.078 255.516Z" fill="white"/>
<path d="M630.594 247.391C632.781 247.391 634.328 248.719 634.328 250.656C634.328 252.594 632.781 253.922 630.594 253.922C628.406 253.922 626.828 252.594 626.844 250.656C626.828 248.719 628.406 247.391 630.594 247.391ZM630.594 248.469C629.109 248.469 628.031 249.359 628.047 250.656C628.031 251.953 629.109 252.844 630.594 252.844C632.062 252.844 633.125 251.953 633.125 250.656C633.125 249.359 632.062 248.469 630.594 248.469ZM637.438 246.375V260.297H636.219V246.375H637.438ZM626.125 256.188C628.688 256.188 632.219 256.172 635.297 255.719L635.391 256.625C632.219 257.219 628.797 257.234 626.297 257.234L626.125 256.188Z" fill="white"/>
<path d="M655.406 246.375V254.656H654.172V251.016H651.375V250H654.172V246.375H655.406ZM650.797 255.094C653.688 255.094 655.453 256.031 655.453 257.672C655.453 259.312 653.688 260.25 650.797 260.266C647.906 260.25 646.141 259.312 646.141 257.672C646.141 256.031 647.906 255.094 650.797 255.094ZM650.797 256.047C648.672 256.047 647.344 256.656 647.359 257.672C647.344 258.672 648.672 259.281 650.797 259.281C652.922 259.281 654.234 258.672 654.234 257.672C654.234 256.656 652.922 256.047 650.797 256.047ZM648.719 248.922C648.719 250.734 650.109 252.453 652.141 253.156L651.5 254.141C649.938 253.578 648.727 252.414 648.141 250.969C647.531 252.602 646.242 253.906 644.594 254.531L643.953 253.547C646.016 252.797 647.484 250.922 647.484 248.938V248.422H644.344V247.391H651.828V248.422H648.719V248.922Z" fill="white"/>
<path d="M661.828 249.391C661.828 251.031 662.922 252.641 664.688 253.281L664.094 254.234C662.734 253.695 661.773 252.656 661.281 251.391C660.797 252.766 659.82 253.898 658.438 254.484L657.828 253.562C659.594 252.828 660.656 251.156 660.672 249.391V249.219H658.109V248.219H660.672V246.547H661.828V248.219H664.344V249.219H661.828V249.391ZM669.516 246.391V254.891H668.344V251.125H666.531V254.828H665.344V246.641H666.531V250.109H668.344V246.391H669.516ZM669.516 255.641V260.266H668.312V256.641H660.156V255.641H669.516Z" fill="white"/>
<path d="M677.875 246.625C680.969 246.625 682.781 247.469 682.781 249.016C682.781 250.594 680.969 251.438 677.875 251.453C674.781 251.438 672.953 250.594 672.953 249.016C672.953 247.469 674.781 246.625 677.875 246.625ZM677.875 247.547C675.562 247.547 674.219 248.109 674.234 249.016C674.219 249.984 675.562 250.516 677.875 250.516C680.172 250.516 681.531 249.984 681.531 249.016C681.531 248.109 680.172 247.547 677.875 247.547ZM684.203 252.391V253.391H671.547V252.391H684.203ZM682.578 254.594V257.703H674.328V259.141H683V260.109H673.109V256.797H681.375V255.531H673.078V254.594H682.578Z" fill="white"/>
<path d="M700.234 246.391V250.594H702.312V251.625H700.234V255.703H699V246.391H700.234ZM689.328 254.281C690.438 254.281 691.734 254.281 693.094 254.234V253.219C691.477 253.078 690.438 252.32 690.438 251.172C690.438 249.906 691.734 249.125 693.688 249.125C695.656 249.125 696.938 249.906 696.953 251.172C696.938 252.312 695.922 253.07 694.312 253.219V254.188C695.609 254.125 696.922 254.023 698.141 253.844L698.25 254.734C695.234 255.266 691.906 255.281 689.469 255.281L689.328 254.281ZM700.234 256.391V260.266H699V257.375H691.031V256.391H700.234ZM697.719 247.656V248.594H689.672V247.656H693.094V246.266H694.312V247.656H697.719ZM693.688 250C692.406 249.984 691.609 250.438 691.609 251.172C691.609 251.891 692.406 252.391 693.688 252.375C694.969 252.391 695.781 251.891 695.781 251.172C695.781 250.438 694.969 249.984 693.688 250Z" fill="white"/>
<path d="M714.688 246.391V256.547H713.469V246.391H714.688ZM715.125 258.938V259.969H705.719V255.516H706.938V258.938H715.125ZM707.188 247.359C709.266 247.359 710.828 248.766 710.828 250.766C710.828 252.797 709.266 254.188 707.188 254.188C705.109 254.188 703.547 252.797 703.547 250.766C703.547 248.766 705.109 247.359 707.188 247.359ZM707.188 248.438C705.781 248.438 704.734 249.406 704.75 250.766C704.734 252.156 705.781 253.109 707.188 253.109C708.562 253.109 709.625 252.156 709.625 250.766C709.625 249.406 708.562 248.438 707.188 248.438Z" fill="white"/>
<path d="M727.797 246.375V252.109H730.125V253.125H727.797V260.266H726.578V246.375H727.797ZM725.234 248.609V249.625H716.969V248.609H720.547V246.547H721.766V248.609H725.234ZM721.172 250.781C723.141 250.781 724.562 252.094 724.578 253.969C724.562 255.844 723.141 257.156 721.172 257.156C719.188 257.156 717.75 255.844 717.766 253.969C717.75 252.094 719.188 250.781 721.172 250.781ZM721.172 251.812C719.875 251.812 718.922 252.719 718.938 253.969C718.922 255.234 719.875 256.125 721.172 256.109C722.453 256.125 723.391 255.234 723.406 253.969C723.391 252.719 722.453 251.812 721.172 251.812Z" fill="white"/>
<path d="M735 250.328C735 252.531 736.078 254.922 737.922 256.016L737.219 256.969C735.883 256.156 734.922 254.672 734.438 252.984C733.922 254.828 732.891 256.414 731.5 257.266L730.719 256.344C732.641 255.219 733.812 252.75 733.812 250.375V247.688H735V250.328ZM742.781 246.375V260.266H741.594V246.375H742.781ZM739.906 246.672V259.562H738.75V252.406H736.391V251.359H738.75V246.672H739.906Z" fill="white"/>
<path d="M757.422 257.453V258.484H744.703V257.453H747.859V253.703C746.672 253.086 745.953 252.086 745.953 250.828C745.953 248.672 748.062 247.266 751.031 247.25C754 247.266 756.109 248.672 756.109 250.828C756.109 252.062 755.414 253.055 754.266 253.672V257.453H757.422ZM751.031 248.266C748.75 248.25 747.141 249.281 747.141 250.828C747.141 252.375 748.75 253.422 751.031 253.422C753.297 253.422 754.922 252.375 754.922 250.828C754.922 249.281 753.297 248.25 751.031 248.266ZM749.062 257.453H753.031V254.141C752.43 254.305 751.758 254.391 751.031 254.391C750.32 254.391 749.656 254.312 749.062 254.156V257.453Z" fill="white"/>
<path d="M459.992 217.807H453.092V194.624H449.562V215.838H442.893V172.966H449.562V188.841H453.092V171.76H459.992V217.807ZM419.461 203.493C422.417 201.731 424.853 199.845 426.769 197.834C428.685 195.812 430.163 193.601 431.204 191.2C432.244 188.8 432.918 186.104 433.226 183.112H421.962V177.365H440.268C440.268 182 439.759 186.175 438.742 189.888C437.725 193.601 435.993 197.012 433.545 200.122C431.097 203.232 427.786 206.011 423.612 208.459L419.461 203.493Z" fill="white"/>
<path d="M503.288 204.716H496.033V171.831H503.288V204.716ZM465.187 186.358C465.187 184.147 465.749 182.148 466.872 180.363C467.996 178.577 469.533 177.182 471.484 176.176C473.435 175.16 475.587 174.651 477.94 174.651C480.294 174.651 482.44 175.16 484.379 176.176C486.33 177.182 487.868 178.577 488.991 180.363C490.114 182.148 490.676 184.147 490.676 186.358C490.676 188.617 490.114 190.645 488.991 192.442C487.868 194.228 486.336 195.629 484.397 196.646C482.458 197.651 480.306 198.154 477.94 198.154C475.575 198.154 473.417 197.651 471.466 196.646C469.527 195.629 467.996 194.228 466.872 192.442C465.749 190.645 465.187 188.617 465.187 186.358ZM472.105 201.417H479.413V211.297H504.423V217.08H472.105V201.417ZM472.247 186.358C472.247 187.529 472.489 188.528 472.974 189.356C473.459 190.183 474.133 190.81 474.996 191.236C475.859 191.662 476.841 191.874 477.94 191.874C479.005 191.874 479.957 191.662 480.796 191.236C481.648 190.81 482.316 190.183 482.801 189.356C483.285 188.528 483.528 187.529 483.528 186.358C483.528 185.235 483.285 184.265 482.801 183.449C482.316 182.621 481.648 181.994 480.796 181.569C479.945 181.131 478.993 180.918 477.94 180.93C476.841 180.918 475.859 181.131 474.996 181.569C474.133 181.994 473.459 182.615 472.974 183.431C472.489 184.247 472.247 185.223 472.247 186.358Z" fill="white"/>
<path d="M547.985 199.094H540.783V188.593H534.291V182.739H540.783V171.76H547.985V199.094ZM508.554 193.524C510.931 192.755 512.905 191.673 514.478 190.278C516.063 188.871 517.245 187.304 518.026 185.577C518.818 183.839 519.279 182.024 519.409 180.132H510.594V174.385H535.604V180.132H526.859C526.977 181.87 527.415 183.532 528.172 185.116C528.929 186.689 530.052 188.114 531.542 189.391C533.044 190.668 534.912 191.673 537.147 192.407L533.617 198.083C531.193 197.302 529.118 196.173 527.391 194.695C525.665 193.217 524.281 191.46 523.241 189.427C522.2 191.732 520.769 193.731 518.948 195.422C517.127 197.101 514.91 198.378 512.297 199.253L508.554 193.524ZM516.163 208.938C516.163 207.07 516.802 205.467 518.079 204.131C519.368 202.783 521.207 201.754 523.595 201.045C525.984 200.323 528.816 199.963 532.092 199.963C535.391 199.963 538.241 200.323 540.641 201.045C543.042 201.754 544.881 202.783 546.158 204.131C547.447 205.467 548.091 207.07 548.091 208.938C548.091 210.795 547.447 212.397 546.158 213.745C544.881 215.093 543.042 216.122 540.641 216.831C538.241 217.541 535.391 217.896 532.092 217.896C528.816 217.896 525.984 217.541 523.595 216.831C521.207 216.122 519.368 215.093 518.079 213.745C516.802 212.397 516.163 210.795 516.163 208.938ZM523.365 208.938C523.353 210.121 524.074 210.996 525.529 211.563C526.983 212.131 529.171 212.415 532.092 212.415C535.036 212.415 537.242 212.131 538.708 211.563C540.174 210.996 540.913 210.121 540.925 208.938C540.913 207.732 540.174 206.845 538.708 206.277C537.253 205.71 535.048 205.426 532.092 205.426C529.171 205.426 526.983 205.71 525.529 206.277C524.074 206.845 523.353 207.732 523.365 208.938Z" fill="white"/>
<path d="M595.467 212.628H553.411V206.792H570.776V198.721H557.703V174.598H564.922V181.391H583.76V174.598H590.944V198.721H577.924V206.792H595.467V212.628ZM583.76 192.974V187.085H564.922V192.974H583.76Z" fill="white"/>
<path d="M636.918 217.931H629.645V194.978H621.929V189.231H629.645V171.76H636.918V217.931ZM597.451 203.794C599.876 202.73 601.892 201.234 603.5 199.306C605.12 197.379 606.308 195.268 607.065 192.974C607.834 190.668 608.224 188.356 608.236 186.039V184.833H599.03V179.139H608.289V172.877H615.491V179.139H624.466V184.833H615.455V186.039C615.443 188.25 615.822 190.461 616.59 192.673C617.371 194.872 618.577 196.9 620.209 198.757C621.853 200.613 623.904 202.074 626.364 203.138L622.55 208.601C620.067 207.596 617.933 206.13 616.147 204.202C614.361 202.263 612.942 199.998 611.89 197.409C610.873 200.164 609.472 202.576 607.686 204.646C605.9 206.715 603.754 208.276 601.247 209.328L597.451 203.794Z" fill="white"/>
<path d="M680.923 217.931H673.722V171.76H680.923V217.931ZM644.579 175.52H666.573V193.666H652.046V201.346C655.617 201.311 658.881 201.181 661.837 200.956C664.805 200.72 667.797 200.347 670.813 199.839L671.416 205.657C668.022 206.283 664.587 206.709 661.11 206.934C657.634 207.158 653.53 207.271 648.8 207.271H644.596V188.043H659.194V181.285H644.579V175.52Z" fill="white"/>
<path d="M708.06 199.732C711.264 199.732 714.038 200.087 716.379 200.796C718.732 201.506 720.541 202.541 721.807 203.901C723.072 205.249 723.705 206.863 723.705 208.743C723.705 210.647 723.072 212.285 721.807 213.656C720.541 215.028 718.732 216.075 716.379 216.796C714.038 217.529 711.264 217.896 708.06 217.896C704.796 217.896 701.964 217.529 699.564 216.796C697.175 216.075 695.336 215.028 694.047 213.656C692.77 212.285 692.131 210.647 692.131 208.743C692.131 206.863 692.77 205.249 694.047 203.901C695.336 202.541 697.175 201.506 699.564 200.796C701.964 200.087 704.796 199.732 708.06 199.732ZM687.768 174.687H694.916V180.114H703.076V174.687H710.313V196.415H687.768V174.687ZM703.076 190.792V185.684H694.916V190.792H703.076ZM699.368 208.743C699.357 211.108 702.254 212.29 708.06 212.29C710.898 212.29 713.021 212.001 714.428 211.421C715.847 210.83 716.556 209.937 716.556 208.743C716.556 207.549 715.853 206.679 714.445 206.135C713.05 205.58 710.922 205.302 708.06 205.302C705.151 205.302 702.969 205.58 701.515 206.135C700.072 206.691 699.357 207.56 699.368 208.743ZM716.006 171.76H723.261V182.19H729.221V188.185H723.261V198.739H716.006V171.76Z" fill="white"/>
<path d="M758.273 181.764H749.245C749.351 183.266 749.801 184.708 750.593 186.092C751.397 187.464 752.586 188.699 754.158 189.799C755.743 190.887 757.712 191.715 760.065 192.282L756.748 197.941C754.206 197.302 752.012 196.321 750.167 194.996C748.323 193.66 746.85 192.064 745.751 190.207C744.663 192.253 743.185 194.009 741.316 195.475C739.46 196.93 737.219 198.012 734.594 198.721L731.259 193.205C733.6 192.543 735.545 191.62 737.095 190.438C738.655 189.243 739.826 187.907 740.607 186.429C741.387 184.951 741.831 183.396 741.937 181.764H732.926V176.106H741.955V171.689H749.28V176.106H758.273V181.764ZM738.531 200.495H769.661V217.328H738.531V200.495ZM762.584 211.563V206.26H745.644V211.563H762.584ZM762.406 171.831H769.661V198.686H762.406V171.831Z" fill="white"/>
<path d="M497.992 136.028H504.058C505.334 136.028 506.412 136.265 507.29 136.74C508.174 137.21 508.834 137.859 509.271 138.688C509.713 139.517 509.934 140.464 509.934 141.53C509.934 142.597 509.713 143.547 509.271 144.381C508.829 145.21 508.166 145.862 507.282 146.337C506.403 146.812 505.326 147.05 504.05 147.05H500.569V153H497.992V136.028ZM503.793 144.854C504.992 144.854 505.881 144.552 506.461 143.95C507.047 143.348 507.34 142.541 507.34 141.53C507.34 140.519 507.047 139.718 506.461 139.127C505.881 138.536 504.989 138.24 503.785 138.24H500.569V144.854H503.793Z" fill="white"/>
<path d="M516.041 140.271H518.461V142.301H518.594C518.748 141.848 518.983 141.456 519.298 141.124C519.619 140.787 519.994 140.53 520.425 140.354C520.862 140.171 521.326 140.08 521.818 140.08C521.994 140.08 522.185 140.086 522.389 140.097C522.594 140.108 522.76 140.122 522.887 140.138V142.525C522.748 142.492 522.552 142.459 522.298 142.425C522.05 142.392 521.812 142.376 521.585 142.376C521.011 142.376 520.492 142.5 520.027 142.749C519.563 142.992 519.199 143.331 518.934 143.768C518.674 144.204 518.544 144.696 518.544 145.243V153H516.041V140.271Z" fill="white"/>
<path d="M528.36 140.271H530.863V153H528.36V140.271ZM529.628 138.315C529.341 138.315 529.075 138.249 528.832 138.116C528.595 137.983 528.404 137.804 528.261 137.577C528.117 137.351 528.045 137.102 528.045 136.831C528.045 136.561 528.117 136.312 528.261 136.086C528.404 135.859 528.595 135.68 528.832 135.547C529.075 135.414 529.341 135.348 529.628 135.348C529.91 135.348 530.169 135.414 530.407 135.547C530.65 135.68 530.841 135.859 530.979 136.086C531.122 136.312 531.194 136.561 531.194 136.831C531.194 137.102 531.122 137.351 530.979 137.577C530.841 137.804 530.65 137.983 530.407 138.116C530.169 138.249 529.91 138.315 529.628 138.315Z" fill="white"/>
<path d="M543.805 153H541.128L536.512 140.271H539.197L542.404 150.05H542.537L545.752 140.271H548.429L543.805 153Z" fill="white"/>
<path d="M553.104 149.403C553.104 148.094 553.549 147.157 554.438 146.594C555.333 146.03 556.474 145.699 557.861 145.599C558.402 145.566 558.991 145.533 559.626 145.5C560.261 145.467 560.789 145.442 561.209 145.425V144.389C561.209 143.666 560.988 143.108 560.546 142.715C560.104 142.323 559.46 142.127 558.615 142.127C557.902 142.127 557.319 142.273 556.866 142.566C556.419 142.859 556.129 143.251 555.996 143.743H553.502C553.579 143.041 553.842 142.414 554.289 141.862C554.737 141.309 555.339 140.878 556.096 140.569C556.858 140.26 557.728 140.105 558.706 140.105C559.513 140.105 560.289 140.229 561.035 140.478C561.781 140.727 562.411 141.182 562.924 141.845C563.444 142.503 563.703 143.403 563.703 144.547V153H561.267V151.26H561.167C560.991 151.613 560.737 151.942 560.405 152.246C560.079 152.55 559.662 152.798 559.154 152.992C558.651 153.185 558.068 153.282 557.405 153.282C556.587 153.282 555.853 153.13 555.201 152.826C554.554 152.522 554.043 152.077 553.667 151.492C553.292 150.906 553.104 150.21 553.104 149.403ZM555.557 149.436C555.557 150.033 555.775 150.492 556.212 150.812C556.654 151.127 557.237 151.285 557.96 151.285C558.618 151.285 559.192 151.152 559.684 150.887C560.181 150.622 560.56 150.271 560.819 149.834C561.085 149.392 561.217 148.917 561.217 148.409V147.249C560.797 147.271 559.797 147.337 558.217 147.448C557.372 147.508 556.717 147.704 556.253 148.036C555.789 148.362 555.557 148.829 555.557 149.436Z" fill="white"/>
<path d="M575.71 153.257C574.5 153.257 573.445 152.981 572.545 152.428C571.65 151.87 570.962 151.094 570.481 150.099C570 149.105 569.76 147.97 569.76 146.693C569.76 145.406 570.003 144.265 570.489 143.271C570.981 142.271 571.674 141.494 572.569 140.942C573.464 140.384 574.503 140.105 575.685 140.105C576.641 140.105 577.5 140.285 578.263 140.644C579.031 140.997 579.647 141.497 580.111 142.144C580.581 142.79 580.857 143.539 580.94 144.389H578.511C578.418 143.981 578.249 143.61 578.006 143.279C577.768 142.948 577.453 142.685 577.061 142.492C576.674 142.298 576.227 142.202 575.719 142.202C575.034 142.202 574.431 142.384 573.912 142.749C573.393 143.108 572.989 143.622 572.702 144.29C572.42 144.959 572.279 145.74 572.279 146.635C572.279 147.552 572.42 148.351 572.702 149.03C572.984 149.704 573.384 150.224 573.904 150.588C574.423 150.953 575.028 151.135 575.719 151.135C576.431 151.135 577.036 150.945 577.534 150.564C578.031 150.182 578.357 149.649 578.511 148.964H580.94C580.851 149.793 580.581 150.533 580.128 151.185C579.68 151.831 579.078 152.34 578.321 152.71C577.564 153.075 576.694 153.257 575.71 153.257Z" fill="white"/>
<path d="M588.458 157.773C587.894 157.773 587.447 157.757 587.115 157.724L587.132 155.627C587.38 155.649 587.753 155.66 588.251 155.66C588.571 155.66 588.836 155.63 589.046 155.569C589.256 155.508 589.466 155.356 589.676 155.113C589.886 154.876 590.082 154.506 590.264 154.003L590.579 153.174L585.914 140.271H588.59L591.797 150.141H591.93L595.154 140.271H597.831L592.585 154.691C592.209 155.718 591.684 156.489 591.01 157.003C590.342 157.517 589.491 157.773 588.458 157.773Z" fill="white"/>
<path d="M613.135 136.028H619.202C620.478 136.028 621.555 136.265 622.434 136.74C623.318 137.21 623.978 137.859 624.414 138.688C624.856 139.517 625.077 140.464 625.077 141.53C625.077 142.597 624.856 143.547 624.414 144.381C623.973 145.21 623.31 145.862 622.426 146.337C621.547 146.812 620.47 147.05 619.193 147.05H615.713V153H613.135V136.028ZM618.937 144.854C620.135 144.854 621.025 144.552 621.605 143.95C622.191 143.348 622.484 142.541 622.484 141.53C622.484 140.519 622.191 139.718 621.605 139.127C621.025 138.536 620.133 138.24 618.928 138.24H615.713V144.854H618.937Z" fill="white"/>
<path d="M636.399 153.257C635.212 153.257 634.167 152.986 633.267 152.445C632.372 151.898 631.678 151.127 631.187 150.133C630.695 149.138 630.449 147.992 630.449 146.693C630.449 145.384 630.695 144.232 631.187 143.238C631.678 142.243 632.372 141.472 633.267 140.925C634.167 140.378 635.212 140.105 636.399 140.105C637.582 140.105 638.62 140.378 639.515 140.925C640.416 141.472 641.109 142.243 641.596 143.238C642.087 144.232 642.333 145.384 642.333 146.693C642.333 147.992 642.087 149.138 641.596 150.133C641.109 151.127 640.416 151.898 639.515 152.445C638.62 152.986 637.582 153.257 636.399 153.257ZM632.968 146.685C632.968 147.519 633.096 148.276 633.35 148.956C633.609 149.635 633.996 150.174 634.51 150.572C635.029 150.97 635.662 151.169 636.408 151.169C637.148 151.169 637.772 150.97 638.281 150.572C638.794 150.174 639.178 149.635 639.433 148.956C639.687 148.276 639.814 147.519 639.814 146.685C639.814 145.851 639.687 145.094 639.433 144.414C639.178 143.735 638.794 143.193 638.281 142.79C637.772 142.387 637.148 142.185 636.408 142.185C635.662 142.185 635.029 142.387 634.51 142.79C633.996 143.193 633.609 143.735 633.35 144.414C633.096 145.094 632.968 145.851 632.968 146.685Z" fill="white"/>
<path d="M650.905 153H648.402V136.028H650.905V153Z" fill="white"/>
<path d="M657.557 140.271H660.06V153H657.557V140.271ZM658.825 138.315C658.538 138.315 658.272 138.249 658.029 138.116C657.792 137.983 657.601 137.804 657.457 137.577C657.314 137.351 657.242 137.102 657.242 136.831C657.242 136.561 657.314 136.312 657.457 136.086C657.601 135.859 657.792 135.68 658.029 135.547C658.272 135.414 658.538 135.348 658.825 135.348C659.107 135.348 659.366 135.414 659.604 135.547C659.847 135.68 660.038 135.859 660.176 136.086C660.319 136.312 660.391 136.561 660.391 136.831C660.391 137.102 660.319 137.351 660.176 137.577C660.038 137.804 659.847 137.983 659.604 138.116C659.366 138.249 659.107 138.315 658.825 138.315Z" fill="white"/>
<path d="M672.09 153.257C670.88 153.257 669.825 152.981 668.924 152.428C668.029 151.87 667.341 151.094 666.861 150.099C666.38 149.105 666.14 147.97 666.14 146.693C666.14 145.406 666.383 144.265 666.869 143.271C667.361 142.271 668.054 141.494 668.949 140.942C669.844 140.384 670.883 140.105 672.065 140.105C673.021 140.105 673.88 140.285 674.643 140.644C675.41 140.997 676.027 141.497 676.491 142.144C676.96 142.79 677.236 143.539 677.319 144.389H674.891C674.797 143.981 674.629 143.61 674.386 143.279C674.148 142.948 673.833 142.685 673.441 142.492C673.054 142.298 672.607 142.202 672.098 142.202C671.413 142.202 670.811 142.384 670.292 142.749C669.772 143.108 669.369 143.622 669.082 144.29C668.8 144.959 668.659 145.74 668.659 146.635C668.659 147.552 668.8 148.351 669.082 149.03C669.363 149.704 669.764 150.224 670.283 150.588C670.803 150.953 671.408 151.135 672.098 151.135C672.811 151.135 673.416 150.945 673.913 150.564C674.41 150.182 674.736 149.649 674.891 148.964H677.319C677.231 149.793 676.96 150.533 676.507 151.185C676.06 151.831 675.457 152.34 674.701 152.71C673.944 153.075 673.073 153.257 672.09 153.257Z" fill="white"/>
<path d="M684.837 157.773C684.274 157.773 683.826 157.757 683.495 157.724L683.511 155.627C683.76 155.649 684.133 155.66 684.63 155.66C684.951 155.66 685.216 155.63 685.426 155.569C685.636 155.508 685.846 155.356 686.056 155.113C686.266 154.876 686.462 154.506 686.644 154.003L686.959 153.174L682.293 140.271H684.97L688.177 150.141H688.31L691.534 140.271H694.21L688.964 154.691C688.589 155.718 688.064 156.489 687.39 157.003C686.721 157.517 685.871 157.773 684.837 157.773Z" fill="white"/>
<path d="M594 96H600V78H594V96ZM597 72C597.85 72 598.563 71.712 599.139 71.136C599.715 70.56 600.002 69.848 600 69C599.998 68.152 599.71 67.44 599.136 66.864C598.562 66.288 597.85 66 597 66C596.15 66 595.438 66.288 594.864 66.864C594.29 67.44 594.002 68.152 594 69C593.998 69.848 594.286 70.561 594.864 71.139C595.442 71.717 596.154 72.004 597 72ZM597 111C590.05 109.25 584.312 105.262 579.786 99.036C575.26 92.81 572.998 85.898 573 78.3V60L597 51L621 60V78.3C621 85.9 618.738 92.813 614.214 99.039C609.69 105.265 603.952 109.252 597 111ZM597 104.7C602.2 103.05 606.5 99.75 609.9 94.8C613.3 89.85 615 84.35 615 78.3V64.125L597 57.375L579 64.125V78.3C579 84.35 580.7 89.85 584.1 94.8C587.5 99.75 591.8 103.05 597 104.7Z" fill="url(#paint5_linear_4490_7757)"/>
<defs>
<linearGradient id="paint0_linear_4490_7757" x1="9.5" y1="1.25898e-06" x2="1195" y2="390" gradientUnits="userSpaceOnUse">
<stop stop-color="#667CE8"/>
<stop offset="1" stop-color="#754CA4"/>
</linearGradient>
<linearGradient id="paint1_linear_4490_7757" x1="597.5" y1="0" x2="597.5" y2="390" gradientUnits="userSpaceOnUse">
<stop offset="0.278846" stop-color="white"/>
<stop offset="1" stop-color="#CFCEFF" stop-opacity="0.6"/>
</linearGradient>
<linearGradient id="paint2_linear_4490_7757" x1="597.5" y1="0" x2="597.5" y2="390" gradientUnits="userSpaceOnUse">
<stop offset="0.278846" stop-color="white"/>
<stop offset="1" stop-color="#CFCEFF" stop-opacity="0.6"/>
</linearGradient>
<linearGradient id="paint3_linear_4490_7757" x1="597.5" y1="0" x2="597.5" y2="390" gradientUnits="userSpaceOnUse">
<stop offset="0.278846" stop-color="white"/>
<stop offset="1" stop-color="#CFCEFF" stop-opacity="0.6"/>
</linearGradient>
<linearGradient id="paint4_linear_4490_7757" x1="597.5" y1="0" x2="597.5" y2="390" gradientUnits="userSpaceOnUse">
<stop offset="0.278846" stop-color="white"/>
<stop offset="1" stop-color="#CFCEFF" stop-opacity="0.6"/>
</linearGradient>
<linearGradient id="paint5_linear_4490_7757" x1="548" y1="54.5" x2="625" y2="109" gradientUnits="userSpaceOnUse">
<stop stop-color="#C5C3FF"/>
<stop offset="1" stop-color="#E8E8FF"/>
</linearGradient>
</defs>
</svg>
