<svg width="50" height="50" viewBox="0 0 50 50" fill="none" xmlns="http://www.w3.org/2000/svg">
<g clip-path="url(#clip0_4514_8036)">
<path fill-rule="evenodd" clip-rule="evenodd" d="M35 23C35 25.6522 33.9464 28.1957 32.0711 30.0711C30.1957 31.9464 27.6522 33 25 33C22.3478 33 19.8043 31.9464 17.9289 30.0711C16.0536 28.1957 15 25.6522 15 23C15 20.3478 16.0536 17.8043 17.9289 15.9289C19.8043 14.0536 22.3478 13 25 13C27.6522 13 30.1957 14.0536 32.0711 15.9289C33.9464 17.8043 35 20.3478 35 23ZM30 23C30 24.3261 29.4732 25.5979 28.5355 26.5355C27.5979 27.4732 26.3261 28 25 28C23.6739 28 22.4021 27.4732 21.4645 26.5355C20.5268 25.5979 20 24.3261 20 23C20 21.6739 20.5268 20.4021 21.4645 19.4645C22.4021 18.5268 23.6739 18 25 18C26.3261 18 27.5979 18.5268 28.5355 19.4645C29.4732 20.4021 30 21.6739 30 23Z" fill="black"/>
<path fill-rule="evenodd" clip-rule="evenodd" d="M25 0C11.1932 0 0 11.1932 0 25C0 38.8068 11.1932 50 25 50C38.8068 50 50 38.8068 50 25C50 11.1932 38.8068 0 25 0ZM4.54545 25C4.54545 29.75 6.16591 34.1227 8.88182 37.5955C10.7896 35.0912 13.2503 33.0617 16.0719 31.6653C18.8935 30.2689 21.9995 29.5434 25.1477 29.5455C28.2554 29.5418 31.3229 30.2479 34.1162 31.6099C36.9095 32.9719 39.3549 34.9539 41.2659 37.4045C43.2351 34.8218 44.561 31.8073 45.1339 28.6104C45.7067 25.4136 45.5101 22.1262 44.5602 19.0204C43.6104 15.9146 41.9346 13.0797 39.6716 10.7501C37.4085 8.42052 34.6233 6.66332 31.5463 5.62388C28.4693 4.58445 25.1891 4.29266 21.977 4.77267C18.7648 5.25267 15.7132 6.49066 13.0745 8.38421C10.4358 10.2778 8.28593 12.7724 6.80279 15.6618C5.31965 18.5512 4.54586 21.7522 4.54545 25ZM25 45.4545C20.3043 45.4622 15.7503 43.8467 12.1091 40.8818C13.5746 38.7832 15.5254 37.0698 17.7956 35.8874C20.0658 34.705 22.5881 34.0887 25.1477 34.0909C27.6754 34.0887 30.1671 34.6897 32.4159 35.8439C34.6646 36.9981 36.6055 38.6723 38.0773 40.7273C34.4079 43.7886 29.7787 45.462 25 45.4545Z" fill="black"/>
</g>
<defs>
<clipPath id="clip0_4514_8036">
<rect width="50" height="50" fill="white"/>
</clipPath>
</defs>
</svg>
