<svg width="30" height="29" viewBox="0 0 30 29" fill="none" xmlns="http://www.w3.org/2000/svg">
<path d="M4.375 0.5C3.21468 0.5 2.10188 0.960936 1.28141 1.78141C0.460936 2.60188 0 3.71468 0 4.875V20.625C0 21.7853 0.460936 22.8981 1.28141 23.7186C2.10188 24.5391 3.21468 25 4.375 25H13.3C13.0142 24.4405 12.7838 23.8544 12.6122 23.25H4.375C3.67881 23.25 3.01113 22.9734 2.51884 22.4812C2.02656 21.9889 1.75 21.3212 1.75 20.625V9.25H8.9005C9.59646 9.24939 10.2637 8.97242 10.7555 8.48L13.4872 5.75H23.625C24.3212 5.75 24.9889 6.02656 25.4811 6.51884C25.9734 7.01113 26.25 7.67881 26.25 8.375V12.05C26.8777 12.372 27.461 12.7552 28 13.1997V8.375C28 7.21468 27.5391 6.10188 26.7186 5.28141C25.8981 4.46094 24.7853 4 23.625 4H13.4872L10.885 1.39775C10.6006 1.11312 10.2628 0.887325 9.89109 0.733283C9.51935 0.579242 9.12089 0.499971 8.7185 0.5H4.375ZM1.75 4.875C1.75 4.17881 2.02656 3.51113 2.51884 3.01884C3.01113 2.52656 3.67881 2.25 4.375 2.25H8.7185C9.06648 2.25031 9.40009 2.38879 9.646 2.635L11.886 4.875L9.52 7.2445C9.43859 7.3257 9.34198 7.39007 9.23568 7.43391C9.12938 7.47775 9.01548 7.50021 8.9005 7.5H1.75V4.875ZM29.75 20.625C29.75 22.7136 28.9203 24.7166 27.4435 26.1935C25.9666 27.6703 23.9636 28.5 21.875 28.5C19.7864 28.5 17.7834 27.6703 16.3065 26.1935C14.8297 24.7166 14 22.7136 14 20.625C14 18.5364 14.8297 16.5334 16.3065 15.0565C17.7834 13.5797 19.7864 12.75 21.875 12.75C23.9636 12.75 25.9666 13.5797 27.4435 15.0565C28.9203 16.5334 29.75 18.5364 29.75 20.625ZM22.75 17.125C22.75 16.8929 22.6578 16.6704 22.4937 16.5063C22.3296 16.3422 22.1071 16.25 21.875 16.25C21.6429 16.25 21.4204 16.3422 21.2563 16.5063C21.0922 16.6704 21 16.8929 21 17.125V19.75H18.375C18.1429 19.75 17.9204 19.8422 17.7563 20.0063C17.5922 20.1704 17.5 20.3929 17.5 20.625C17.5 20.8571 17.5922 21.0796 17.7563 21.2437C17.9204 21.4078 18.1429 21.5 18.375 21.5H21V24.125C21 24.3571 21.0922 24.5796 21.2563 24.7437C21.4204 24.9078 21.6429 25 21.875 25C22.1071 25 22.3296 24.9078 22.4937 24.7437C22.6578 24.5796 22.75 24.3571 22.75 24.125V21.5H25.375C25.6071 21.5 25.8296 21.4078 25.9937 21.2437C26.1578 21.0796 26.25 20.8571 26.25 20.625C26.25 20.3929 26.1578 20.1704 25.9937 20.0063C25.8296 19.8422 25.6071 19.75 25.375 19.75H22.75V17.125Z" fill="white"/>
</svg>
