<svg width="30" height="28" viewBox="0 0 30 28" fill="none" xmlns="http://www.w3.org/2000/svg">
<path d="M4.5 7.99117e-09C3.33968 7.99117e-09 2.22688 0.460936 1.40641 1.28141C0.585936 2.10188 0.125 3.21468 0.125 4.375V20.125C0.125 21.2853 0.585936 22.3981 1.40641 23.2186C2.22688 24.0391 3.33968 24.5 4.5 24.5H13.425C13.1392 23.9405 12.9088 23.3544 12.7372 22.75H4.5C3.80381 22.75 3.13613 22.4734 2.64384 21.9812C2.15156 21.4889 1.875 20.8212 1.875 20.125V8.75H9.0255C9.72146 8.74939 10.3887 8.47242 10.8805 7.98L13.6122 5.25H23.75C24.4462 5.25 25.1139 5.52656 25.6061 6.01884C26.0984 6.51113 26.375 7.17881 26.375 7.875V11.55C27.0027 11.872 27.586 12.2552 28.125 12.6997V7.875C28.125 6.71468 27.6641 5.60188 26.8436 4.78141C26.0231 3.96094 24.9103 3.5 23.75 3.5H13.6122L11.01 0.89775C10.7256 0.613115 10.3878 0.387325 10.0161 0.233283C9.64435 0.0792424 9.24589 -2.90598e-05 8.8435 7.99117e-09H4.5ZM1.875 4.375C1.875 3.67881 2.15156 3.01113 2.64384 2.51884C3.13613 2.02656 3.80381 1.75 4.5 1.75H8.8435C9.19148 1.75031 9.52509 1.88879 9.771 2.135L12.011 4.375L9.645 6.7445C9.56359 6.8257 9.46698 6.89007 9.36068 6.93391C9.25438 6.97775 9.14048 7.00021 9.0255 7H1.875V4.375ZM29.875 20.125C29.875 22.2136 29.0453 24.2166 27.5685 25.6935C26.0916 27.1703 24.0886 28 22 28C19.9114 28 17.9084 27.1703 16.4315 25.6935C14.9547 24.2166 14.125 22.2136 14.125 20.125C14.125 18.0364 14.9547 16.0334 16.4315 14.5565C17.9084 13.0797 19.9114 12.25 22 12.25C24.0886 12.25 26.0916 13.0797 27.5685 14.5565C29.0453 16.0334 29.875 18.0364 29.875 20.125ZM22.875 16.625C22.875 16.3929 22.7828 16.1704 22.6187 16.0063C22.4546 15.8422 22.2321 15.75 22 15.75C21.7679 15.75 21.5454 15.8422 21.3813 16.0063C21.2172 16.1704 21.125 16.3929 21.125 16.625V19.25H18.5C18.2679 19.25 18.0454 19.3422 17.8813 19.5063C17.7172 19.6704 17.625 19.8929 17.625 20.125C17.625 20.3571 17.7172 20.5796 17.8813 20.7437C18.0454 20.9078 18.2679 21 18.5 21H21.125V23.625C21.125 23.8571 21.2172 24.0796 21.3813 24.2437C21.5454 24.4078 21.7679 24.5 22 24.5C22.2321 24.5 22.4546 24.4078 22.6187 24.2437C22.7828 24.0796 22.875 23.8571 22.875 23.625V21H25.5C25.7321 21 25.9546 20.9078 26.1187 20.7437C26.2828 20.5796 26.375 20.3571 26.375 20.125C26.375 19.8929 26.2828 19.6704 26.1187 19.5063C25.9546 19.3422 25.7321 19.25 25.5 19.25H22.875V16.625Z" fill="#1E1E1E"/>
</svg>
