<svg width="24" height="24" viewBox="0 0 24 24" fill="none" xmlns="http://www.w3.org/2000/svg">
<path fill-rule="evenodd" clip-rule="evenodd" d="M17.25 4.5H6.75C6.15326 4.5 5.58097 4.73705 5.15901 5.15901C4.73705 5.58097 4.5 6.15326 4.5 6.75V17.25C4.5 17.8467 4.73705 18.419 5.15901 18.841C5.58097 19.2629 6.15326 19.5 6.75 19.5H17.25C17.8467 19.5 18.419 19.2629 18.841 18.841C19.2629 18.419 19.5 17.8467 19.5 17.25V6.75C19.5 6.15326 19.2629 5.58097 18.841 5.15901C18.419 4.73705 17.8467 4.5 17.25 4.5ZM6.75 2.25C5.55653 2.25 4.41193 2.72411 3.56802 3.56802C2.72411 4.41193 2.25 5.55653 2.25 6.75V17.25C2.25 18.4435 2.72411 19.5881 3.56802 20.432C4.41193 21.2759 5.55653 21.75 6.75 21.75H17.25C18.4435 21.75 19.5881 21.2759 20.432 20.432C21.2759 19.5881 21.75 18.4435 21.75 17.25V6.75C21.75 5.55653 21.2759 4.41193 20.432 3.56802C19.5881 2.72411 18.4435 2.25 17.25 2.25H6.75ZM15.75 11.25H8.145C7.74718 11.25 7.36564 11.408 7.08434 11.6893C6.80304 11.9706 6.645 12.3522 6.645 12.75V15.75C6.645 16.1478 6.80304 16.5294 7.08434 16.8107C7.36564 17.092 7.74718 17.25 8.145 17.25H15.75C16.1478 17.25 16.5294 17.092 16.8107 16.8107C17.092 16.5294 17.25 16.1478 17.25 15.75V12.75C17.25 12.3522 17.092 11.9706 16.8107 11.6893C16.5294 11.408 16.1478 11.25 15.75 11.25ZM7.77 6.75H13.125C13.4234 6.75 13.7095 6.86853 13.9205 7.0795C14.1315 7.29048 14.25 7.57663 14.25 7.875C14.25 8.17337 14.1315 8.45952 13.9205 8.6705C13.7095 8.88147 13.4234 9 13.125 9H7.77C7.47163 9 7.18548 8.88147 6.97451 8.6705C6.76353 8.45952 6.645 8.17337 6.645 7.875C6.645 7.57663 6.76353 7.29048 6.97451 7.0795C7.18548 6.86853 7.47163 6.75 7.77 6.75Z" fill="black"/>
</svg>
