<svg width="32" height="32" viewBox="0 0 32 32" fill="none" xmlns="http://www.w3.org/2000/svg">
<path d="M13.3333 28H18.6667C18.6667 29.4666 17.4667 30.6666 16 30.6666C14.5333 30.6666 13.3333 29.4666 13.3333 28ZM28 25.3333V26.6666H4V25.3333L6.66667 22.6666V14.6666C6.66667 10.5333 9.33333 6.93329 13.3333 5.73329V5.33329C13.3333 3.86663 14.5333 2.66663 16 2.66663C17.4667 2.66663 18.6667 3.86663 18.6667 5.33329V5.73329C22.6667 6.93329 25.3333 10.5333 25.3333 14.6666V22.6666L28 25.3333ZM22.6667 14.6666C22.6667 10.9333 19.7333 7.99996 16 7.99996C12.2667 7.99996 9.33333 10.9333 9.33333 14.6666V24H22.6667V14.6666Z" fill="black"/>
<circle cx="29" cy="3" r="3" fill="#EA4335"/>
</svg>
