<svg width="30" height="31" viewBox="0 0 30 31" fill="none" xmlns="http://www.w3.org/2000/svg">
<path d="M7.23221 3.71387C6.16661 3.71387 5.14465 4.13718 4.39116 4.89067C3.63766 5.64416 3.21436 6.66612 3.21436 7.73172V23.2674C3.21436 24.333 3.63766 25.355 4.39116 26.1085C5.14465 26.862 6.16661 27.2853 7.23221 27.2853H22.7679C23.8335 27.2853 24.8555 26.862 25.609 26.1085C26.3625 25.355 26.7858 24.333 26.7858 23.2674V7.73172C26.7858 6.66612 26.3625 5.64416 25.609 4.89067C24.8555 4.13718 23.8335 3.71387 22.7679 3.71387H7.23221ZM4.8215 7.73172C4.8215 7.09236 5.07548 6.47919 5.52758 6.02709C5.97968 5.575 6.59285 5.32101 7.23221 5.32101H14.4644V10.6782H4.8215V7.73172ZM4.8215 12.2853H14.4644V25.6782H7.23221C6.59285 25.6782 5.97968 25.4242 5.52758 24.9721C5.07548 24.52 4.8215 23.9068 4.8215 23.2674V12.2853ZM16.0715 25.6782V19.7853H25.1786V23.2674C25.1786 23.9068 24.9247 24.52 24.4726 24.9721C24.0205 25.4242 23.4073 25.6782 22.7679 25.6782H16.0715ZM25.1786 18.1782H16.0715V5.32101H22.7679C23.4073 5.32101 24.0205 5.575 24.4726 6.02709C24.9247 6.47919 25.1786 7.09236 25.1786 7.73172V18.1782Z" fill="black"/>
</svg>
