<svg width="30" height="30" viewBox="0 0 30 30" fill="none" xmlns="http://www.w3.org/2000/svg">
<path d="M7.2327 3.21387C6.1671 3.21387 5.14514 3.63718 4.39165 4.39067C3.63815 5.14416 3.21484 6.16612 3.21484 7.23172V22.7674C3.21484 23.833 3.63815 24.855 4.39165 25.6085C5.14514 26.362 6.1671 26.7853 7.2327 26.7853H22.7684C23.834 26.7853 24.856 26.362 25.6095 25.6085C26.363 24.855 26.7863 23.833 26.7863 22.7674V7.23172C26.7863 6.16612 26.363 5.14416 25.6095 4.39067C24.856 3.63718 23.834 3.21387 22.7684 3.21387H7.2327ZM4.82199 7.23172C4.82199 6.59236 5.07597 5.97919 5.52807 5.52709C5.98017 5.075 6.59334 4.82101 7.2327 4.82101H14.4648V10.1782H4.82199V7.23172ZM4.82199 11.7853H14.4648V25.1782H7.2327C6.59334 25.1782 5.98017 24.9242 5.52807 24.4721C5.07597 24.02 4.82199 23.4068 4.82199 22.7674V11.7853ZM16.072 25.1782V19.2853H25.1791V22.7674C25.1791 23.4068 24.9251 24.02 24.473 24.4721C24.021 24.9242 23.4078 25.1782 22.7684 25.1782H16.072ZM25.1791 17.6782H16.072V4.82101H22.7684C23.4078 4.82101 24.021 5.075 24.473 5.52709C24.9251 5.97919 25.1791 6.59236 25.1791 7.23172V17.6782Z" fill="black"/>
</svg>
