<svg width="32" height="32" viewBox="0 0 32 32" fill="none" xmlns="http://www.w3.org/2000/svg">
<path d="M24 14C24.28 14 24.418 14 24.534 14.016C24.9006 14.0669 25.2405 14.2361 25.5022 14.4978C25.7639 14.7595 25.9331 15.0994 25.984 15.466C26 15.58 26 15.72 26 16C26 16.28 26 16.418 25.984 16.534C25.9331 16.9006 25.7639 17.2405 25.5022 17.5022C25.2405 17.7639 24.9006 17.9331 24.534 17.984C24.42 18 24.28 18 24 18C23.72 18 23.582 18 23.466 17.984C23.0994 17.9331 22.7595 17.7639 22.4978 17.5022C22.2361 17.2405 22.0669 16.9006 22.016 16.534C22 16.42 22 16.28 22 16C22 15.72 22 15.582 22.016 15.466C22.0669 15.0994 22.2361 14.7595 22.4978 14.4978C22.7595 14.2361 23.0994 14.0669 23.466 14.016C23.58 14 23.72 14 24 14ZM16 14C16.28 14 16.418 14 16.534 14.016C16.9006 14.0669 17.2405 14.2361 17.5022 14.4978C17.7639 14.7595 17.9331 15.0994 17.984 15.466C18 15.58 18 15.72 18 16C18 16.28 18 16.418 17.984 16.534C17.9331 16.9006 17.7639 17.2405 17.5022 17.5022C17.2405 17.7639 16.9006 17.9331 16.534 17.984C16.42 18 16.28 18 16 18C15.72 18 15.582 18 15.466 17.984C15.0994 17.9331 14.7595 17.7639 14.4978 17.5022C14.2361 17.2405 14.0669 16.9006 14.016 16.534C14 16.42 14 16.28 14 16C14 15.72 14 15.582 14.016 15.466C14.0669 15.0994 14.2361 14.7595 14.4978 14.4978C14.7595 14.2361 15.0994 14.0669 15.466 14.016C15.58 14 15.72 14 16 14ZM8 14C8.278 14 8.418 14 8.534 14.016C8.89993 14.0672 9.23921 14.2362 9.50049 14.4975C9.76176 14.7588 9.93079 15.0981 9.982 15.464C9.998 15.582 9.998 15.72 9.998 15.998C9.998 16.276 9.998 16.418 9.982 16.532C9.93079 16.8979 9.76176 17.2372 9.50049 17.4985C9.23921 17.7598 8.89993 17.9288 8.534 17.98C8.418 17.996 8.278 17.996 8 17.996C7.722 17.996 7.582 17.996 7.466 17.98C7.10007 17.9288 6.76079 17.7598 6.49951 17.4985C6.23824 17.2372 6.06921 16.8979 6.018 16.532C6.002 16.416 6.002 16.276 6.002 15.998C6.002 15.72 6.002 15.58 6.018 15.464C6.06921 15.0981 6.23824 14.7588 6.49951 14.4975C6.76079 14.2362 7.10007 14.0672 7.466 14.016C7.582 14 7.722 14 8 14Z" fill="black"/>
</svg>
