<svg width="33" height="33" viewBox="0 0 33 33" fill="none" xmlns="http://www.w3.org/2000/svg">
<path fill-rule="evenodd" clip-rule="evenodd" d="M16.9793 3.10645C24.342 3.10645 30.3127 9.07707 30.3127 16.4398C30.3127 23.8024 24.342 29.7731 16.9793 29.7731C9.61662 29.7731 3.646 23.8024 3.646 16.4398C3.646 9.07707 9.61662 3.10645 16.9793 3.10645ZM16.9793 5.77313C11.0981 5.77313 6.31268 10.5584 6.31268 16.4398C6.31268 22.3211 11.098 27.1064 16.9793 27.1064C22.8607 27.1064 27.646 22.3211 27.646 16.4398C27.646 10.5584 22.8607 5.77313 16.9793 5.77313ZM20.0367 11.4971L21.922 13.3824L18.8647 16.4398L21.922 19.4971L20.0367 21.3824L16.9793 18.3251L13.922 21.3824L12.0367 19.4971L15.094 16.4398L12.0367 13.3824L13.922 11.4971L16.9793 14.5544L20.0367 11.4971Z" fill="#F73A32"/>
</svg>
