<svg xmlns="http://www.w3.org/2000/svg" width="21" height="18" viewBox="0 0 21 18" fill="none">
<path d="M18.0991 1.03653C18.3534 0.868793 18.6986 0.896761 18.9224 1.12051C19.178 1.37627 19.178 1.79054 18.9224 2.04629L3.20168 17.767L3.09914 17.851C2.84497 18.0187 2.49967 17.9906 2.27589 17.767C2.02014 17.5112 2.02017 17.096 2.27589 16.8402L5.0132 14.102C3.65408 13.2076 2.50445 12.1463 1.66261 11.2611L1.31398 10.8861C0.606687 10.1077 0.562307 8.98232 1.18117 8.16055L1.31398 8.00039C3.06679 6.07171 6.56747 2.8931 10.5991 2.89297L10.9751 2.90176C12.4173 2.97197 13.7842 3.44044 15.021 4.09414L17.9956 1.12051L18.0991 1.03653ZM17.4771 5.72696C18.4556 6.51234 19.276 7.33105 19.8843 8.00039C20.6383 8.83069 20.6384 10.0559 19.8843 10.8861L19.5357 11.2611C17.6923 13.1994 14.3788 15.9931 10.5991 15.9936L10.2222 15.9838C9.35993 15.9418 8.52414 15.7574 7.72707 15.477L8.77297 14.4311C9.3725 14.5922 9.98332 14.683 10.5991 14.683C12.2721 14.6827 13.9074 14.0203 15.3833 13.0639C16.8533 12.1111 18.0822 10.9211 18.9146 10.0053L19.0132 9.87539C19.182 9.60601 19.1819 9.28055 19.0132 9.01114L18.9146 8.88125C18.3127 8.21901 17.5021 7.41504 16.5444 6.65957L17.4771 5.72696ZM14.4653 8.73867C14.5067 8.96701 14.5297 9.20255 14.5298 9.44278L14.5249 9.6459C14.4192 11.7216 12.701 13.3728 10.5991 13.3734L10.397 13.3686C10.2266 13.3599 10.059 13.3387 9.89504 13.309L11.2193 11.9848C12.1668 11.7539 12.9105 11.0105 13.1411 10.0629L14.4653 8.73867ZM10.5991 4.20254C8.92588 4.20261 7.29017 4.86606 5.81398 5.82266C4.34404 6.77536 3.11609 7.96538 2.28371 8.88125C1.9833 9.21201 1.98329 9.67452 2.28371 10.0053L2.61379 10.3598C3.42651 11.2141 4.52757 12.2301 5.81398 13.0639C5.86221 13.0951 5.91176 13.1243 5.96046 13.1547L7.39601 11.7191C6.97535 11.1284 6.7136 10.4165 6.67433 9.6459L6.66945 9.44278C6.6699 7.27276 8.42907 5.51331 10.5991 5.51309L10.8023 5.51797C11.5727 5.55734 12.2838 5.82004 12.8745 6.24063L14.0464 5.06875C12.9446 4.53644 11.7819 4.20273 10.5991 4.20254ZM10.5991 6.82266C9.15258 6.82288 7.97947 7.99627 7.97902 9.44278C7.97912 9.92821 8.11353 10.3815 8.34425 10.7709L9.33449 9.78067C9.31695 9.71491 9.3035 9.64698 9.2964 9.57754L9.28957 9.44278C9.29004 8.71983 9.87613 8.13345 10.5991 8.13321L10.7339 8.14004C10.8034 8.14717 10.8712 8.16054 10.937 8.17813L11.9263 7.18887C11.5369 6.95825 11.0844 6.82287 10.5991 6.82266Z" fill="#627D98"/>
</svg>