<svg xmlns="http://www.w3.org/2000/svg" width="21" height="18" viewBox="0 0 21 14" fill="none">
<path d="M10.9751 0.902344C14.8476 1.09079 18.1863 4.13262 19.8842 6.00098C20.6383 6.83139 20.6386 8.05649 19.8842 8.88672L19.5356 9.26172C17.6922 11.2 14.3787 13.9937 10.5991 13.9941L10.2221 13.9844C6.59991 13.8079 3.44457 11.1353 1.66255 9.26172L1.31392 8.88672C0.606649 8.10829 0.562378 6.9829 1.18111 6.16113L1.31392 6.00098C3.0666 4.07236 6.56727 0.8938 10.5991 0.893555L10.9751 0.902344ZM10.5991 2.20312C8.92577 2.20325 7.29013 2.86657 5.81392 3.82324C4.34389 4.77604 3.116 5.96596 2.28365 6.88184C1.98339 7.2126 1.98325 7.67516 2.28365 8.00586L2.61373 8.36035C3.42643 9.21461 4.52759 10.2308 5.81392 11.0645C7.29 12.0209 8.92597 12.6835 10.5991 12.6836C12.272 12.6834 13.9073 12.0208 15.3833 11.0645C16.8533 10.1117 18.0821 8.92175 18.9145 8.00586L19.0131 7.87598C19.1822 7.60655 19.1819 7.28125 19.0131 7.01172L18.9145 6.88184C18.0822 5.96597 16.8533 4.77608 15.3833 3.82324C13.9072 2.86677 12.2721 2.20334 10.5991 2.20312ZM10.8022 3.51855C12.878 3.62444 14.5295 5.34127 14.5297 7.44336L14.5249 7.64648C14.4191 9.72226 12.7011 11.3736 10.5991 11.374L10.3969 11.3691C8.3879 11.2672 6.7767 9.65539 6.67427 7.64648L6.66939 7.44336C6.66961 5.27315 8.42887 3.51389 10.5991 3.51367L10.8022 3.51855ZM10.5991 4.82324C9.15238 4.82346 7.97918 5.99666 7.97896 7.44336C7.97933 8.88993 9.15247 10.0633 10.5991 10.0635C12.0455 10.0631 13.2188 8.88981 13.2192 7.44336C13.219 5.99678 12.0456 4.82365 10.5991 4.82324ZM10.7338 6.14062C11.3938 6.20813 11.9094 6.7656 11.9096 7.44336L11.9028 7.57812C11.8353 8.23814 11.2768 8.75363 10.5991 8.75391L10.4653 8.74707C9.84919 8.68436 9.35935 8.19413 9.29634 7.57812L9.28951 7.44336C9.28976 6.72021 9.87593 6.13404 10.5991 6.13379L10.7338 6.14062Z" fill="#627D98"/>
</svg>