<svg width="30" height="30" viewBox="0 0 30 30" fill="none" xmlns="http://www.w3.org/2000/svg">
<g clip-path="url(#clip0_4904_9937)">
<path d="M10.1682 -0.000677997C9.90093 0.0501633 9.66019 0.19384 9.48854 0.404972C9.31689 0.616104 9.22538 0.881106 9.23017 1.15317V2.30701H5.08325C4.16017 2.30701 3.46094 3.00624 3.46094 3.92932V28.2686C3.46094 29.307 4.16017 29.9993 5.08325 29.9993H24.8071C25.7302 29.9993 26.4294 29.3001 26.4294 28.377V3.92932C26.5448 3.00624 25.8386 2.30701 24.9156 2.30701H20.7686V1.15317C20.7686 0.847149 20.6471 0.553664 20.4307 0.337276C20.2143 0.120888 19.9208 -0.000677997 19.6148 -0.000677997H10.384C10.3479 -0.00237817 10.3117 -0.00237817 10.2756 -0.000677997C10.2394 -0.00237817 10.2044 -0.00237817 10.1682 -0.000677997ZM11.5379 2.30701H18.4609V4.61471H11.5379V2.30701ZM5.76863 4.61471H9.23017V5.76855C9.23017 6.07457 9.35173 6.36806 9.56812 6.58445C9.78451 6.80083 10.078 6.9224 10.384 6.9224H19.6148C19.9208 6.9224 20.2143 6.80083 20.4307 6.58445C20.6471 6.36806 20.7686 6.07457 20.7686 5.76855V4.61471H24.2302V27.6916H5.76863V4.61471ZM8.07632 10.3839V14.9993H12.6917V10.3839H8.07632ZM9.23017 11.5378H11.5379V13.8455H9.23017V11.5378ZM14.9994 11.5378V13.8455H21.9225V11.5378H14.9994ZM8.07632 17.307V21.9224H12.6917V17.307H8.07632ZM14.9994 18.4609V20.7686H21.9225V18.4609H14.9994Z" fill="black"/>
</g>
<defs>
<clipPath id="clip0_4904_9937">
<rect width="30" height="30" fill="white"/>
</clipPath>
</defs>
</svg>
