<svg width="24" height="24" viewBox="0 0 24 24" fill="none" xmlns="http://www.w3.org/2000/svg">
<g clip-path="url(#clip0_4692_9935)">
<path d="M8.4 0C7.76348 0 7.15303 0.252856 6.70294 0.702944C6.25286 1.15303 6 1.76348 6 2.4H16.8C17.4365 2.4 18.047 2.65286 18.4971 3.10294C18.9471 3.55303 19.2 4.16348 19.2 4.8V19.2C19.8365 19.2 20.447 18.9471 20.8971 18.4971C21.3471 18.047 21.6 17.4365 21.6 16.8V2.4C21.6 1.76348 21.3471 1.15303 20.8971 0.702944C20.447 0.252856 19.8365 0 19.2 0L8.4 0Z" fill="black"/>
<path d="M12.9596 18.7208C12.1171 19.2034 11.1655 19.4517 10.1996 19.4408C8.95769 19.4393 7.75252 19.01 6.77893 18.2221C5.80534 17.4343 5.12024 16.334 4.83436 15.0991C4.54847 13.8642 4.67852 12.5669 5.20347 11.4169C5.72843 10.2669 6.61761 9.33132 7.7273 8.76148C8.83699 8.19164 10.1023 8.0208 11.3188 8.27659C12.5352 8.53237 13.6317 9.19982 14.431 10.1711C15.2303 11.1423 15.6857 12.3606 15.7236 13.6289C15.7614 14.8973 15.3795 16.1416 14.6396 17.1608L17.9996 20.7608V5.88082C17.9996 5.27612 17.7594 4.6962 17.3318 4.26861C16.9043 3.84103 16.3243 3.60082 15.7196 3.60082H4.79964C4.49029 3.58451 4.18086 3.63142 3.89023 3.73868C3.59961 3.84594 3.33389 4.01129 3.10929 4.22466C2.8847 4.43802 2.70594 4.69492 2.58393 4.97966C2.46192 5.26441 2.39922 5.57103 2.39964 5.88082V21.6008C2.38334 21.9102 2.43025 22.2196 2.53751 22.5102C2.64476 22.8009 2.81012 23.0666 3.02349 23.2912C3.23685 23.5158 3.49375 23.6945 3.77849 23.8165C4.06324 23.9385 4.36986 24.0012 4.67964 24.0008H15.5996C15.9142 24.0032 16.2258 23.9404 16.515 23.8165C16.8041 23.6926 17.0644 23.5102 17.2796 23.2808L12.9596 18.7208Z" fill="black"/>
<path d="M10.1996 17.3992C12.1878 17.3992 13.7996 15.7874 13.7996 13.7992C13.7996 11.811 12.1878 10.1992 10.1996 10.1992C8.21138 10.1992 6.59961 11.811 6.59961 13.7992C6.59961 15.7874 8.21138 17.3992 10.1996 17.3992Z" fill="black"/>
</g>
<defs>
<clipPath id="clip0_4692_9935">
<rect width="24" height="24" fill="white"/>
</clipPath>
</defs>
</svg>
