<svg width="45" height="45" viewBox="0 0 45 45" fill="none" xmlns="http://www.w3.org/2000/svg">
<path d="M10.2558 11.2782V34.742C10.2555 35.4121 10.3873 36.0756 10.6436 36.6947C10.8999 37.3138 11.2757 37.8763 11.7495 38.3501C12.2233 38.8239 12.7859 39.1997 13.405 39.456C14.0241 39.7123 14.6876 39.8441 15.3577 39.8439H29.6414C30.994 39.8439 32.2912 39.3066 33.2477 38.3501C34.2041 37.3937 34.7414 36.0965 34.7414 34.7439V11.2764M6.17578 11.2782H38.8233H6.17578Z" fill="white"/>
<path d="M10.2558 11.2782V34.742C10.2555 35.412 10.3873 36.0756 10.6436 36.6947C10.8999 37.3138 11.2757 37.8763 11.7495 38.3501C12.2233 38.8239 12.7859 39.1997 13.405 39.456C14.0241 39.7123 14.6876 39.8441 15.3577 39.8439H29.6414C30.994 39.8439 32.2912 39.3066 33.2477 38.3501C34.2041 37.3937 34.7414 36.0965 34.7414 34.7439V11.2764M6.17578 11.2782H38.8233" stroke="white" stroke-width="1.875" stroke-linecap="round" stroke-linejoin="round"/>
<path d="M16.377 11.2781V8.21625C16.3765 7.81411 16.4553 7.41583 16.6091 7.04423C16.7628 6.67262 16.9883 6.33501 17.2728 6.05074C17.5572 5.76647 17.895 5.54113 18.2667 5.38764C18.6384 5.23415 19.0367 5.15551 19.4388 5.15626H25.5588C25.961 5.15551 26.3593 5.23415 26.731 5.38764C27.1027 5.54113 27.4404 5.76647 27.7249 6.05074C28.0093 6.33501 28.2349 6.67262 28.3886 7.04423C28.5423 7.41583 28.6212 7.81411 28.6207 8.21625V11.2781M18.4188 31.86V21.6619V31.86ZM26.5807 31.86V21.6619V31.86Z" fill="white"/>
<path d="M16.377 11.2781V8.21625C16.3765 7.81411 16.4553 7.41583 16.6091 7.04423C16.7628 6.67262 16.9883 6.33501 17.2728 6.05074C17.5572 5.76647 17.895 5.54113 18.2667 5.38764C18.6384 5.23415 19.0367 5.15551 19.4388 5.15626H25.5588C25.961 5.15551 26.3593 5.23415 26.731 5.38764C27.1027 5.54113 27.4404 5.76647 27.7249 6.05074C28.0093 6.33501 28.2349 6.67262 28.3886 7.04423C28.5423 7.41583 28.6212 7.81411 28.6207 8.21625V11.2781M18.4188 31.86V21.6619M26.5807 31.86V21.6619" stroke="white" stroke-width="1.875" stroke-linecap="round" stroke-linejoin="round"/>
</svg>
