<svg width="45" height="45" viewBox="0 0 45 45" fill="none" xmlns="http://www.w3.org/2000/svg">
<path d="M5.15625 16.168V30.0036C5.15625 31.9927 5.94643 33.9004 7.35295 35.3069C8.75947 36.7134 10.6671 37.5036 12.6562 37.5036H32.3438C34.3329 37.5036 36.2405 36.7134 37.647 35.3069C39.0536 33.9004 39.8438 31.9927 39.8438 30.0036V19.3348C39.8438 17.3457 39.0536 15.4381 37.647 14.0315C36.2405 12.625 34.3329 11.8348 32.3438 11.8348H22.5M5.15625 16.168V13.1211C5.15625 11.6293 5.74888 10.1985 6.80377 9.14362C7.85867 8.08873 9.28941 7.49609 10.7812 7.49609H16.2187C16.8344 7.49598 17.444 7.61713 18.0128 7.85262C18.5816 8.08812 19.0984 8.43335 19.5338 8.86859L22.5 11.8367M5.15625 16.168H16.2263C16.8419 16.1681 17.4515 16.0469 18.0203 15.8114C18.5891 15.5759 19.1059 15.2307 19.5413 14.7955L22.5 11.8367" fill="white"/>
<path d="M5.15625 16.168V30.0036C5.15625 31.9927 5.94643 33.9004 7.35295 35.3069C8.75947 36.7134 10.6671 37.5036 12.6562 37.5036H32.3438C34.3329 37.5036 36.2405 36.7134 37.647 35.3069C39.0536 33.9004 39.8438 31.9927 39.8438 30.0036V19.3348C39.8438 17.3457 39.0536 15.4381 37.647 14.0315C36.2405 12.625 34.3329 11.8348 32.3438 11.8348H22.5M5.15625 16.168V13.1211C5.15625 11.6293 5.74888 10.1985 6.80377 9.14362C7.85867 8.08873 9.28941 7.49609 10.7812 7.49609H16.2187C16.8344 7.49598 17.444 7.61713 18.0128 7.85262C18.5816 8.08812 19.0984 8.43335 19.5338 8.86859L22.5 11.8367L19.5412 14.7955C19.1059 15.2307 18.5891 15.5759 18.0203 15.8114C17.4515 16.0469 16.8419 16.1681 16.2263 16.168H5.15625Z" stroke="white" stroke-width="1.875" stroke-linejoin="round"/>
</svg>
