<svg width="45" height="45" viewBox="0 0 45 45" fill="none" xmlns="http://www.w3.org/2000/svg">
<path d="M17.1623 10.14C19.5379 5.88 20.7248 3.75 22.5004 3.75C24.2761 3.75 25.4629 5.88 27.8386 10.14L28.4536 11.2425C29.1286 12.4537 29.4661 13.0594 29.9911 13.4587C30.5161 13.8581 31.1723 14.0062 32.4848 14.3025L33.6773 14.5725C38.2898 15.6169 40.5942 16.1381 41.1436 17.9025C41.6911 19.665 40.1198 21.5044 36.9754 25.1813L36.1617 26.1319C35.2692 27.1763 34.8211 27.6994 34.6204 28.3444C34.4198 28.9912 34.4873 29.6887 34.6223 31.0819L34.7461 32.3512C35.2204 37.2581 35.4586 39.7106 34.0223 40.8C32.5861 41.8894 30.4261 40.8956 26.1098 38.9081L24.9904 38.3944C23.7642 37.8281 23.1511 37.5469 22.5004 37.5469C21.8498 37.5469 21.2367 37.8281 20.0104 38.3944L18.8929 38.9081C14.5748 40.8956 12.4148 41.8894 10.9804 40.8019C9.54232 39.7106 9.78044 37.2581 10.2548 32.3512L10.3786 31.0837C10.5136 29.6887 10.5811 28.9913 10.3786 28.3463C10.1798 27.6994 9.73169 27.1762 8.83919 26.1337L8.02544 25.1813C4.88107 21.5063 3.30982 19.6669 3.85732 17.9025C4.40482 16.1381 6.71294 15.615 11.3254 14.5725L12.5179 14.3025C13.8286 14.0062 14.4829 13.8581 15.0098 13.4587C15.5367 13.0594 15.8723 12.4537 16.5473 11.2425L17.1623 10.14Z" fill="white" stroke="white" stroke-width="1.875"/>
</svg>
