<svg width="42" height="42" viewBox="0 0 42 42" fill="none" xmlns="http://www.w3.org/2000/svg">
<path d="M23.625 13.999H7M7 10.499V33.249C7 33.7132 7.18437 34.1583 7.51256 34.4865C7.84075 34.8146 8.28587 34.999 8.75 34.999H33.25C33.7141 34.999 34.1593 34.8146 34.4874 34.4865C34.8156 34.1583 35 33.7132 35 33.249V15.749C35 15.2849 34.8156 14.8398 34.4874 14.5116C34.1593 14.1834 33.7141 13.999 33.25 13.999H24.444C24.1875 13.9989 23.9342 13.9424 23.7019 13.8336C23.4696 13.7247 23.2642 13.5661 23.1 13.369L19.775 9.37902C19.6108 9.18193 19.4054 9.02334 19.1731 8.91447C18.9408 8.8056 18.6875 8.74912 18.431 8.74902H8.75C8.28587 8.74902 7.84075 8.9334 7.51256 9.26159C7.18437 9.58978 7 10.0349 7 10.499Z" stroke="#3D38F5" stroke-width="3.73333" stroke-linecap="round" stroke-linejoin="round"/>
</svg>
