<svg width="30" height="30" viewBox="0 0 30 30" fill="none" xmlns="http://www.w3.org/2000/svg">
<path d="M3.4375 10.7783V20.0021C3.4375 21.3282 3.96428 22.5999 4.90197 23.5376C5.83965 24.4753 7.11142 25.0021 8.4375 25.0021H21.5625C22.8886 25.0021 24.1604 24.4753 25.098 23.5376C26.0357 22.5999 26.5625 21.3282 26.5625 20.0021V12.8896C26.5625 11.5635 26.0357 10.2917 25.098 9.35404C24.1604 8.41635 22.8886 7.88957 21.5625 7.88957H15M3.4375 10.7783V8.74707C3.4375 7.75251 3.83259 6.79868 4.53585 6.09542C5.23911 5.39216 6.19294 4.99707 7.1875 4.99707H10.8125C11.2229 4.99699 11.6293 5.07776 12.0085 5.23476C12.3877 5.39175 12.7323 5.62191 13.0225 5.91207L15 7.89082L13.0275 9.86332C12.7373 10.1535 12.3927 10.3836 12.0135 10.5406C11.6343 10.6976 11.2279 10.7784 10.8175 10.7783H3.4375Z" stroke="black" stroke-width="1.875" stroke-linejoin="round"/>
</svg>
