<svg width="32" height="31" viewBox="0 0 32 31" fill="none" xmlns="http://www.w3.org/2000/svg">
<path d="M18.625 7.99902H2M2 4.49902V27.249C2 27.7132 2.18437 28.1583 2.51256 28.4865C2.84075 28.8146 3.28587 28.999 3.75 28.999H28.25C28.7141 28.999 29.1593 28.8146 29.4874 28.4865C29.8156 28.1583 30 27.7132 30 27.249V9.74902C30 9.28489 29.8156 8.83978 29.4874 8.51159C29.1593 8.1834 28.7141 7.99902 28.25 7.99902H19.444C19.1875 7.99893 18.9342 7.94245 18.7019 7.83358C18.4696 7.72471 18.2642 7.56611 18.1 7.36902L14.775 3.37902C14.6108 3.18193 14.4054 3.02334 14.1731 2.91447C13.9408 2.8056 13.6875 2.74912 13.431 2.74902H3.75C3.28587 2.74902 2.84075 2.9334 2.51256 3.26159C2.18437 3.58978 2 4.03489 2 4.49902Z" stroke="#030303" stroke-width="3.73333" stroke-linecap="round" stroke-linejoin="round"/>
</svg>
