<svg width="26" height="23" viewBox="0 0 26 23" fill="none" xmlns="http://www.w3.org/2000/svg">
<path d="M1.4375 7.27832V16.5021C1.4375 17.8282 1.96428 19.0999 2.90197 20.0376C3.83965 20.9753 5.11142 21.5021 6.4375 21.5021H19.5625C20.8886 21.5021 22.1604 20.9753 23.098 20.0376C24.0357 19.0999 24.5625 17.8282 24.5625 16.5021V9.38957C24.5625 8.06349 24.0357 6.79172 23.098 5.85404C22.1604 4.91635 20.8886 4.38957 19.5625 4.38957H13M1.4375 7.27832V5.24707C1.4375 4.25251 1.83259 3.29868 2.53585 2.59542C3.23911 1.89216 4.19294 1.49707 5.1875 1.49707H8.8125C9.22291 1.49699 9.62931 1.57776 10.0085 1.73476C10.3877 1.89175 10.7323 2.12191 11.0225 2.41207L13 4.39082L11.0275 6.36332C10.7373 6.65349 10.3927 6.88364 10.0135 7.04063C9.63432 7.19763 9.22791 7.2784 8.8175 7.27832H1.4375Z" stroke="black" stroke-width="1.875" stroke-linejoin="round"/>
</svg>
