<svg width="30" height="31" viewBox="0 0 30 31" fill="none" xmlns="http://www.w3.org/2000/svg">
<path d="M17.4687 9.49951H5M5 6.83285V24.1662C5 24.5198 5.13828 24.8589 5.38442 25.109C5.63056 25.359 5.9644 25.4995 6.3125 25.4995H24.6875C25.0356 25.4995 25.3694 25.359 25.6156 25.109C25.8617 24.8589 26 24.5198 26 24.1662V10.8328C26 10.4792 25.8617 10.1401 25.6156 9.89004C25.3694 9.63999 25.0356 9.49951 24.6875 9.49951H18.083C17.8906 9.49944 17.7006 9.4564 17.5264 9.37346C17.3522 9.29051 17.1981 9.16968 17.075 9.01951L14.5813 5.97951C14.4581 5.82935 14.304 5.70851 14.1298 5.62557C13.9556 5.54262 13.7656 5.49958 13.5732 5.49951H6.3125C5.9644 5.49951 5.63056 5.63999 5.38442 5.89004C5.13828 6.14008 5 6.47922 5 6.83285Z" stroke="black" stroke-width="2" stroke-linecap="round" stroke-linejoin="round"/>
</svg>
