<svg width="24" height="24" viewBox="0 0 24 24" fill="none" xmlns="http://www.w3.org/2000/svg">
<path d="M19.713 9.12908L19.467 9.69508C19.4286 9.78725 19.3637 9.86598 19.2806 9.92135C19.1975 9.97673 19.0999 10.0063 19 10.0063C18.9001 10.0063 18.8025 9.97673 18.7194 9.92135C18.6363 9.86598 18.5714 9.78725 18.533 9.69508L18.287 9.12908C17.8545 8.1278 17.0624 7.325 16.067 6.87908L15.308 6.54008C15.2159 6.49772 15.1379 6.42985 15.0832 6.34451C15.0286 6.25917 14.9995 6.15994 14.9995 6.05858C14.9995 5.95722 15.0286 5.85799 15.0832 5.77265C15.1379 5.68731 15.2159 5.61944 15.308 5.57708L16.025 5.25808C17.0454 4.79946 17.8511 3.96696 18.276 2.93208L18.529 2.32108C18.5662 2.22643 18.631 2.14518 18.715 2.08791C18.799 2.03063 18.8983 2 19 2C19.1017 2 19.201 2.03063 19.285 2.08791C19.369 2.14518 19.4338 2.22643 19.471 2.32108L19.724 2.93108C20.1485 3.96616 20.9538 4.79901 21.974 5.25808L22.692 5.57808C22.7838 5.62056 22.8615 5.68842 22.916 5.77365C22.9705 5.85889 22.9994 5.95793 22.9994 6.05908C22.9994 6.16023 22.9705 6.25928 22.916 6.34451C22.8615 6.42974 22.7838 6.4976 22.692 6.54008L21.932 6.87808C20.9368 7.32445 20.1451 8.12761 19.713 9.12908ZM6 5.00108C5.46957 5.00108 4.96086 5.21179 4.58579 5.58687C4.21071 5.96194 4 6.47065 4 7.00108V17.0011C4 17.5315 4.21071 18.0402 4.58579 18.4153C4.96086 18.7904 5.46957 19.0011 6 19.0011H18C18.5304 19.0011 19.0391 18.7904 19.4142 18.4153C19.7893 18.0402 20 17.5315 20 17.0011V12.0011H22V17.0011C22 18.0619 21.5786 19.0794 20.8284 19.8295C20.0783 20.5797 19.0609 21.0011 18 21.0011H6C4.93913 21.0011 3.92172 20.5797 3.17157 19.8295C2.42143 19.0794 2 18.0619 2 17.0011V7.00108C2 5.94022 2.42143 4.9228 3.17157 4.17265C3.92172 3.42251 4.93913 3.00108 6 3.00108H13V5.00108H6Z" fill="black"/>
</svg>
