<svg width="55" height="55" viewBox="0 0 55 55" fill="none" xmlns="http://www.w3.org/2000/svg">
<rect x="0.69043" y="0.654297" width="53.5" height="53.5" rx="26.75" fill="white"/>
<rect x="0.69043" y="0.654297" width="53.5" height="53.5" rx="26.75" stroke="#D9D9D9" stroke-width="0.5"/>
<g clip-path="url(#clip0_956_888)">
<path d="M42.1478 27.7501C42.1478 26.7304 42.0651 25.7053 41.8887 24.7021H27.7402V30.4784H35.8424C35.5062 32.3413 34.4259 33.9893 32.844 35.0365V38.7845H37.6778C40.5163 36.1719 42.1478 32.3138 42.1478 27.7501Z" fill="#4285F4"/>
<path d="M27.7403 42.405C31.7859 42.405 35.1976 41.0766 37.6834 38.7838L32.8496 35.0359C31.5048 35.9508 29.7686 36.4689 27.7458 36.4689C23.8325 36.4689 20.5145 33.8288 19.324 30.2793H14.3359V34.143C16.8823 39.2082 22.0688 42.405 27.7403 42.405Z" fill="#34A853"/>
<path d="M19.3184 30.2797C18.6901 28.4167 18.6901 26.3995 19.3184 24.5365V20.6729H14.3359C12.2084 24.9113 12.2084 29.9049 14.3359 34.1434L19.3184 30.2797Z" fill="#FBBC04"/>
<path d="M27.7403 18.3414C29.8788 18.3083 31.9457 19.113 33.4945 20.5901L37.7771 16.3076C35.0653 13.7612 31.4662 12.3612 27.7403 12.4053C22.0688 12.4053 16.8823 15.6021 14.3359 20.6728L19.3185 24.5365C20.5035 20.9815 23.827 18.3414 27.7403 18.3414Z" fill="#EA4335"/>
</g>
<defs>
<clipPath id="clip0_956_888">
<rect width="30" height="30" fill="white" transform="translate(12.4404 12.4043)"/>
</clipPath>
</defs>
</svg>
