<svg width="28" height="38" viewBox="0 0 28 38" fill="none" xmlns="http://www.w3.org/2000/svg">
<path d="M24.5 33.999V16.499H3.5V33.999H24.5ZM24.5 12.999C25.4283 12.999 26.3185 13.3678 26.9749 14.0242C27.6313 14.6805 28 15.5708 28 16.499V33.999C28 34.9273 27.6313 35.8175 26.9749 36.4739C26.3185 37.1303 25.4283 37.499 24.5 37.499H3.5C2.57174 37.499 1.6815 37.1303 1.02513 36.4739C0.368749 35.8175 0 34.9273 0 33.999V16.499C0 15.5708 0.368749 14.6805 1.02513 14.0242C1.6815 13.3678 2.57174 12.999 3.5 12.999H19.25V9.49902C19.25 8.10664 18.6969 6.77128 17.7123 5.78671C16.7277 4.80215 15.3924 4.24902 14 4.24902C12.6076 4.24902 11.2723 4.80215 10.2877 5.78671C9.30312 6.77128 8.75 8.10664 8.75 9.49902H5.25C5.25 7.17838 6.17187 4.95278 7.81282 3.31184C9.45376 1.6709 11.6794 0.749023 14 0.749023C15.1491 0.749023 16.2869 0.975349 17.3485 1.41508C18.4101 1.85481 19.3747 2.49933 20.1872 3.31184C20.9997 4.12435 21.6442 5.08894 22.0839 6.15054C22.5237 7.21214 22.75 8.34996 22.75 9.49902V12.999H24.5ZM14 28.749C13.0717 28.749 12.1815 28.3803 11.5251 27.7239C10.8687 27.0675 10.5 26.1773 10.5 25.249C10.5 24.3208 10.8687 23.4305 11.5251 22.7742C12.1815 22.1178 13.0717 21.749 14 21.749C14.9283 21.749 15.8185 22.1178 16.4749 22.7742C17.1313 23.4305 17.5 24.3208 17.5 25.249C17.5 26.1773 17.1313 27.0675 16.4749 27.7239C15.8185 28.3803 14.9283 28.749 14 28.749Z" fill="#030303"/>
</svg>