<svg width="42" height="42" viewBox="0 0 42 42" fill="none" xmlns="http://www.w3.org/2000/svg">
<path d="M10.5 38.5C9.5375 38.5 8.71383 38.1576 8.029 37.4728C7.34417 36.7879 7.00117 35.9637 7 35V17.5C7 16.5375 7.343 15.7138 8.029 15.029C8.715 14.3442 9.53867 14.0012 10.5 14H12.25V10.5C12.25 8.07917 13.1034 6.01592 14.8103 4.31025C16.5171 2.60458 18.5803 1.75117 21 1.75C23.4197 1.74883 25.4835 2.60225 27.1915 4.31025C28.8995 6.01825 29.7523 8.0815 29.75 10.5V14H31.5C32.4625 14 33.2868 14.343 33.9728 15.029C34.6588 15.715 35.0012 16.5387 35 17.5V35C35 35.9625 34.6576 36.7868 33.9728 37.4728C33.2879 38.1588 32.4637 38.5012 31.5 38.5H10.5ZM21 29.75C21.9625 29.75 22.7868 29.4076 23.4728 28.7228C24.1588 28.0379 24.5012 27.2137 24.5 26.25C24.4988 25.2863 24.1564 24.4627 23.4728 23.779C22.7891 23.0953 21.9648 22.7523 21 22.75C20.0352 22.7477 19.2115 23.0907 18.529 23.779C17.8465 24.4673 17.5035 25.291 17.5 26.25C17.4965 27.209 17.8395 28.0333 18.529 28.7228C19.2185 29.4123 20.0422 29.7547 21 29.75ZM15.75 14H26.25V10.5C26.25 9.04167 25.7396 7.80208 24.7188 6.78125C23.6979 5.76042 22.4583 5.25 21 5.25C19.5417 5.25 18.3021 5.76042 17.2812 6.78125C16.2604 7.80208 15.75 9.04167 15.75 10.5V14Z" fill="#3D38F5"/>
</svg>
