<svg xmlns="http://www.w3.org/2000/svg" width="163" height="81" viewBox="0 0 163 81" fill="none">
  <g opacity="0.4">
    <path d="M121.285 80.0169C113.565 80.0169 106.538 78.3344 100.204 74.9695C93.9689 71.5055 88.971 66.755 85.2101 60.7178C81.4493 54.6807 79.5688 47.7528 79.5688 39.9342C79.5688 32.2146 81.4493 25.3362 85.2101 19.2991C88.971 13.2619 94.0184 8.56087 100.352 5.19591C106.687 1.73197 113.713 0 121.433 0C129.153 0 136.13 1.73197 142.365 5.19591C148.699 8.56087 153.697 13.2619 157.359 19.2991C161.12 25.3362 163 32.2146 163 39.9342C163 47.7528 161.12 54.6807 157.359 60.7178C153.697 66.755 148.699 71.5055 142.365 74.9695C136.13 78.3344 129.103 80.0169 121.285 80.0169ZM121.285 57.1549C124.452 57.1549 127.223 56.4127 129.598 54.9281C132.072 53.4436 133.953 51.4147 135.239 48.8415C136.526 46.1693 137.169 43.2002 137.169 39.9342C137.169 36.5693 136.526 33.6002 135.239 31.027C133.953 28.4538 132.072 26.4249 129.598 24.9403C127.223 23.4558 124.452 22.7135 121.285 22.7135C118.118 22.7135 115.346 23.4558 112.971 24.9403C110.596 26.4249 108.715 28.4538 107.33 31.027C106.043 33.6002 105.4 36.5693 105.4 39.9342C105.4 43.2002 106.043 46.1693 107.33 48.8415C108.715 51.4147 110.596 53.4436 112.971 54.9281C115.346 56.4127 118.118 57.1549 121.285 57.1549Z" fill="url(#paint0_linear_3987_7016)"></path>
    <path d="M41.7157 80.0169C33.9961 80.0169 26.9692 78.3344 20.6352 74.9695C14.4001 71.5055 9.40211 66.755 5.64127 60.7178C1.88042 54.6807 0 47.7528 0 39.9342C0 32.2146 1.88042 25.3362 5.64127 19.2991C9.40211 13.2619 14.4496 8.56087 20.7836 5.19591C27.1177 1.73197 34.1445 0 41.8641 0C49.5838 0 56.5611 1.73197 62.7962 5.19591C69.1303 8.56087 74.1282 13.2619 77.7901 19.2991C81.551 25.3362 83.4314 32.2146 83.4314 39.9342C83.4314 47.7528 81.551 54.6807 77.7901 60.7178C74.1282 66.755 69.1303 71.5055 62.7962 74.9695C56.5611 78.3344 49.5343 80.0169 41.7157 80.0169ZM41.7157 57.1549C44.8827 57.1549 47.6539 56.4127 50.0291 54.9281C52.5034 53.4436 54.3838 51.4147 55.6704 48.8415C56.957 46.1693 57.6003 43.2002 57.6003 39.9342C57.6003 36.5693 56.957 33.6002 55.6704 31.027C54.3838 28.4538 52.5034 26.4249 50.0291 24.9403C47.6539 23.4558 44.8827 22.7135 41.7157 22.7135C38.5487 22.7135 35.7775 23.4558 33.4022 24.9403C31.027 26.4249 29.1465 28.4538 27.761 31.027C26.4744 33.6002 25.8311 36.5693 25.8311 39.9342C25.8311 43.2002 26.4744 46.1693 27.761 48.8415C29.1465 51.4147 31.027 53.4436 33.4022 54.9281C35.7775 56.4127 38.5487 57.1549 41.7157 57.1549Z" fill="url(#paint1_linear_3987_7016)"></path>
  </g>
  <defs>
    <linearGradient id="paint0_linear_3987_7016" x1="74.8183" y1="-92.2551" x2="74.8183" y2="144.344" gradientUnits="userSpaceOnUse">
      <stop offset="0.432692" stop-color="#E5E4FF"></stop>
      <stop offset="1" stop-color="#5B57FF"></stop>
    </linearGradient>
    <linearGradient id="paint1_linear_3987_7016" x1="74.8175" y1="-92.2551" x2="74.8175" y2="144.344" gradientUnits="userSpaceOnUse">
      <stop offset="0.432692" stop-color="#E5E4FF"></stop>
      <stop offset="1" stop-color="#5B57FF"></stop>
    </linearGradient>
  </defs>
</svg>
