<svg width="72" height="35" viewBox="0 0 72 35" fill="none" xmlns="http://www.w3.org/2000/svg">
<path d="M18.8495 34.768C15.5215 34.768 12.4922 34.0427 9.7615 32.592C7.0735 31.0987 4.91883 29.0507 3.2975 26.448C1.67617 23.8453 0.865501 20.8587 0.865501 17.488C0.865501 14.16 1.67617 11.1947 3.2975 8.592C4.91883 5.98933 7.09483 3.96266 9.8255 2.512C12.5562 1.01867 15.5855 0.271999 18.9135 0.271999C22.2415 0.271999 25.2495 1.01867 27.9375 2.512C30.6682 3.96266 32.8228 5.98933 34.4015 8.592C36.0228 11.1947 36.8335 14.16 36.8335 17.488C36.8335 20.8587 36.0228 23.8453 34.4015 26.448C32.8228 29.0507 30.6682 31.0987 27.9375 32.592C25.2495 34.0427 22.2202 34.768 18.8495 34.768ZM18.8495 24.912C20.2148 24.912 21.4095 24.592 22.4335 23.952C23.5002 23.312 24.3108 22.4373 24.8655 21.328C25.4202 20.176 25.6975 18.896 25.6975 17.488C25.6975 16.0373 25.4202 14.7573 24.8655 13.648C24.3108 12.5387 23.5002 11.664 22.4335 11.024C21.4095 10.384 20.2148 10.064 18.8495 10.064C17.4842 10.064 16.2895 10.384 15.2655 11.024C14.2415 11.664 13.4308 12.5387 12.8335 13.648C12.2788 14.7573 12.0015 16.0373 12.0015 17.488C12.0015 18.896 12.2788 20.176 12.8335 21.328C13.4308 22.4373 14.2415 23.312 15.2655 23.952C16.2895 24.592 17.4842 24.912 18.8495 24.912ZM53.152 34.768C49.824 34.768 46.7947 34.0427 44.064 32.592C41.376 31.0987 39.2213 29.0507 37.6 26.448C35.9787 23.8453 35.168 20.8587 35.168 17.488C35.168 14.16 35.9787 11.1947 37.6 8.592C39.2213 5.98933 41.3973 3.96266 44.128 2.512C46.8587 1.01867 49.888 0.271999 53.216 0.271999C56.544 0.271999 59.552 1.01867 62.24 2.512C64.9707 3.96266 67.1253 5.98933 68.704 8.592C70.3253 11.1947 71.136 14.16 71.136 17.488C71.136 20.8587 70.3253 23.8453 68.704 26.448C67.1253 29.0507 64.9707 31.0987 62.24 32.592C59.552 34.0427 56.5227 34.768 53.152 34.768ZM53.152 24.912C54.5173 24.912 55.712 24.592 56.736 23.952C57.8027 23.312 58.6133 22.4373 59.168 21.328C59.7227 20.176 60 18.896 60 17.488C60 16.0373 59.7227 14.7573 59.168 13.648C58.6133 12.5387 57.8027 11.664 56.736 11.024C55.712 10.384 54.5173 10.064 53.152 10.064C51.7867 10.064 50.592 10.384 49.568 11.024C48.544 11.664 47.7333 12.5387 47.136 13.648C46.5813 14.7573 46.304 16.0373 46.304 17.488C46.304 18.896 46.5813 20.176 47.136 21.328C47.7333 22.4373 48.544 23.312 49.568 23.952C50.592 24.592 51.7867 24.912 53.152 24.912Z" fill="url(#paint0_linear_1450_1103)"/>
<defs>
<linearGradient id="paint0_linear_1450_1103" x1="1920.2" y1="-10.841" x2="1920.2" y2="240.236" gradientUnits="userSpaceOnUse">
<stop stop-color="#3D38F5"/>
<stop offset="1" stop-color="#DCBCDB"/>
</linearGradient>
</defs>
</svg>
