<svg width="40" height="40" viewBox="0 0 40 40" fill="none" xmlns="http://www.w3.org/2000/svg">
<path d="M8.38889 29C7.99537 29 7.66575 28.864 7.4 28.592C7.13426 28.32 7.00093 27.9838 7 27.5833C6.99908 27.1829 7.13241 26.8467 7.4 26.5747C7.6676 26.3027 7.99723 26.1667 8.38889 26.1667H30.6111C31.0046 26.1667 31.3347 26.3027 31.6014 26.5747C31.868 26.8467 32.0009 27.1829 32 27.5833C31.9991 27.9838 31.8657 28.3205 31.6 28.5934C31.3343 28.8663 31.0046 29.0019 30.6111 29H8.38889ZM8.38889 21.9167C7.99537 21.9167 7.66575 21.7807 7.4 21.5087C7.13426 21.2367 7.00093 20.9004 7 20.5C6.99908 20.0995 7.13241 19.7633 7.4 19.4913C7.6676 19.2193 7.99723 19.0833 8.38889 19.0833H30.6111C31.0046 19.0833 31.3347 19.2193 31.6014 19.4913C31.868 19.7633 32.0009 20.0995 32 20.5C31.9991 20.9004 31.8657 21.2371 31.6 21.5101C31.3343 21.783 31.0046 21.9185 30.6111 21.9167H8.38889ZM8.38889 14.8333C7.99537 14.8333 7.66575 14.6973 7.4 14.4253C7.13426 14.1533 7.00093 13.8171 7 13.4167C6.99908 13.0162 7.13241 12.68 7.4 12.408C7.6676 12.136 7.99723 12 8.38889 12H30.6111C31.0046 12 31.3347 12.136 31.6014 12.408C31.868 12.68 32.0009 13.0162 32 13.4167C31.9991 13.8171 31.8657 14.1538 31.6 14.4267C31.3343 14.6997 31.0046 14.8352 30.6111 14.8333H8.38889Z" fill="black"/>
</svg>
