<svg width="42" height="42" viewBox="0 0 42 42" fill="none" xmlns="http://www.w3.org/2000/svg">
<path d="M31.5 34.999V17.499H10.5V34.999H31.5ZM31.5 13.999C32.4283 13.999 33.3185 14.3678 33.9749 15.0242C34.6313 15.6805 35 16.5708 35 17.499V34.999C35 35.9273 34.6313 36.8175 33.9749 37.4739C33.3185 38.1303 32.4283 38.499 31.5 38.499H10.5C9.57174 38.499 8.6815 38.1303 8.02513 37.4739C7.36875 36.8175 7 35.9273 7 34.999V17.499C7 16.5708 7.36875 15.6805 8.02513 15.0242C8.6815 14.3678 9.57174 13.999 10.5 13.999H26.25V10.499C26.25 9.10664 25.6969 7.77128 24.7123 6.78671C23.7277 5.80215 22.3924 5.24902 21 5.24902C19.6076 5.24902 18.2723 5.80215 17.2877 6.78671C16.3031 7.77128 15.75 9.10664 15.75 10.499H12.25C12.25 8.17838 13.1719 5.95278 14.8128 4.31184C16.4538 2.6709 18.6794 1.74902 21 1.74902C22.1491 1.74902 23.2869 1.97535 24.3485 2.41508C25.4101 2.85481 26.3747 3.49933 27.1872 4.31184C27.9997 5.12435 28.6442 6.08894 29.0839 7.15054C29.5237 8.21214 29.75 9.34996 29.75 10.499V13.999H31.5ZM21 29.749C20.0717 29.749 19.1815 29.3803 18.5251 28.7239C17.8687 28.0675 17.5 27.1773 17.5 26.249C17.5 25.3208 17.8687 24.4305 18.5251 23.7742C19.1815 23.1178 20.0717 22.749 21 22.749C21.9283 22.749 22.8185 23.1178 23.4749 23.7742C24.1313 24.4305 24.5 25.3208 24.5 26.249C24.5 27.1773 24.1313 28.0675 23.4749 28.7239C22.8185 29.3803 21.9283 29.749 21 29.749Z" fill="#3D38F5"/>
</svg>
