<svg width="45" height="45" viewBox="0 0 45 45" fill="none" xmlns="http://www.w3.org/2000/svg">
<path d="M36.3937 13.8937L27.3375 4.8375C26.6437 4.14375 25.6875 3.75 24.6938 3.75H11.25C9.1875 3.75 7.51875 5.4375 7.51875 7.5L7.5 37.5C7.5 39.5625 9.16875 41.25 11.2312 41.25H33.75C35.8125 41.25 37.5 39.5625 37.5 37.5V16.5562C37.5 15.5625 37.1062 14.6062 36.3937 13.8937ZM22.5 33.75C19.4063 33.75 16.5188 32.2312 14.775 29.6812C14.5649 29.375 14.4844 28.9981 14.5511 28.6328C14.6179 28.2675 14.8264 27.9434 15.1312 27.7312C15.7687 27.2812 16.65 27.45 17.0812 28.0875C18.3 29.8687 20.325 30.9375 22.4812 30.9375C26.1 30.9375 29.0437 27.9937 29.0437 24.375C29.0461 22.9053 28.5544 21.4775 27.6476 20.321C26.7407 19.1644 25.4715 18.3463 24.0437 17.998C22.6159 17.6497 21.1124 17.7915 19.7749 18.4005C18.4374 19.0096 17.3434 20.0506 16.6688 21.3563L19.6875 24.375H13.125C12.6 24.375 12.1875 23.9625 12.1875 23.4375V16.875L14.625 19.3125C15.4695 17.9898 16.6337 16.9014 18.0102 16.1476C19.3866 15.3939 20.9307 14.9992 22.5 15C27.675 15 31.875 19.2 31.875 24.375C31.875 29.55 27.675 33.75 22.5 33.75Z" fill="white"/>
</svg>
