<svg width="28" height="36" viewBox="0 0 28 36" fill="none" xmlns="http://www.w3.org/2000/svg">
<path d="M9.975 15.9102C10.4708 15.3852 11.0688 14.9622 11.7688 14.6414C12.4688 14.3206 13.2125 14.1602 14 14.1602C15.575 14.1602 16.9167 14.7143 18.025 15.8227C19.1333 16.931 19.6875 18.2727 19.6875 19.8477C19.6875 21.4227 19.1333 22.7643 18.025 23.8727C16.9167 24.981 15.575 25.5352 14 25.5352C12.95 25.5352 11.9951 25.2727 11.1353 24.7477C10.2754 24.2227 9.597 23.5372 9.1 22.6914C8.925 22.3706 8.67008 22.1588 8.33525 22.0562C8.00042 21.9535 7.672 21.9757 7.35 22.1227C7 22.2685 6.75967 22.524 6.629 22.8892C6.49833 23.2543 6.5345 23.5967 6.7375 23.9164C7.4375 25.1997 8.42917 26.2282 9.7125 27.0017C10.9958 27.7752 12.425 28.1613 14 28.1602C16.275 28.1602 18.2292 27.3435 19.8625 25.7102C21.4958 24.0768 22.3125 22.1227 22.3125 19.8477C22.3125 17.5727 21.4958 15.6185 19.8625 13.9852C18.2292 12.3518 16.275 11.5352 14 11.5352C12.8917 11.5352 11.8563 11.7393 10.8938 12.1477C9.93125 12.556 9.07083 13.1102 8.3125 13.8102V12.4102C8.3125 12.031 8.18825 11.7177 7.93975 11.4704C7.69125 11.2231 7.378 11.0988 7 11.0977C6.622 11.0965 6.30875 11.2207 6.06025 11.4704C5.81175 11.7201 5.6875 12.0333 5.6875 12.4102V17.2227C5.6875 17.6018 5.81175 17.9157 6.06025 18.1642C6.30875 18.4127 6.622 18.5363 7 18.5352H11.8125C12.1917 18.5352 12.5055 18.4109 12.754 18.1624C13.0025 17.9139 13.1262 17.6007 13.125 17.2227C13.1238 16.8447 12.9996 16.5314 12.7522 16.2829C12.5049 16.0344 12.1917 15.9102 11.8125 15.9102H9.975ZM3.5 35.5977C2.5375 35.5977 1.71383 35.2552 1.029 34.5704C0.344166 33.8856 0.00116667 33.0613 0 32.0977V4.09766C0 3.13516 0.343 2.31149 1.029 1.62666C1.715 0.941823 2.53867 0.598823 3.5 0.597656H16.0562C16.5229 0.597656 16.968 0.685156 17.3915 0.860156C17.815 1.03516 18.1866 1.28307 18.5063 1.60391L26.9937 10.0914C27.3146 10.4122 27.5625 10.7844 27.7375 11.2079C27.9125 11.6314 28 12.0759 28 12.5414V32.0977C28 33.0602 27.6576 33.8844 26.9727 34.5704C26.2879 35.2564 25.4637 35.5988 24.5 35.5977H3.5ZM3.5 32.0977H24.5V12.5852L16.0125 4.09766H3.5V32.0977Z" fill="black"/>
</svg>
