<svg width="30" height="30" viewBox="0 0 30 30" fill="none" xmlns="http://www.w3.org/2000/svg">
<path d="M10 22.5L12.5 20H15L16.7 18.3C18.4377 18.9054 20.3295 18.903 22.0656 18.2932C23.8018 17.6834 25.2795 16.5023 26.257 14.9433C27.2345 13.3842 27.6538 11.5395 27.4463 9.71109C27.2388 7.88268 26.4167 6.17886 25.1147 4.87849C23.8127 3.57813 22.1079 2.75824 20.2792 2.55302C18.4506 2.3478 16.6064 2.7694 15.0485 3.74882C13.4907 4.72824 12.3115 6.20747 11.7038 7.9444C11.0962 9.68133 11.0962 11.5731 11.7037 13.31L2.5 22.5V27.5H7.5L10 25V22.5Z" stroke="black" stroke-width="2.5" stroke-linecap="round" stroke-linejoin="round"/>
<path d="M21.25 10C21.9404 10 22.5 9.44036 22.5 8.75C22.5 8.05964 21.9404 7.5 21.25 7.5C20.5596 7.5 20 8.05964 20 8.75C20 9.44036 20.5596 10 21.25 10Z" stroke="black" stroke-width="2.5" stroke-linecap="round" stroke-linejoin="round"/>
</svg>
