<svg width="30" height="30" viewBox="0 0 30 30" fill="none" xmlns="http://www.w3.org/2000/svg">
<path d="M11.4415 6.75951C13.0253 3.91951 13.8165 2.49951 15.0003 2.49951C16.184 2.49951 16.9753 3.91951 18.559 6.75951L18.969 7.49451C19.419 8.30201 19.644 8.70576 19.994 8.97201C20.344 9.23826 20.7815 9.33701 21.6565 9.53451L22.4515 9.71451C25.5265 10.4108 27.0628 10.7583 27.429 11.9345C27.794 13.1095 26.7465 14.3358 24.6503 16.787L24.1078 17.4208C23.5128 18.117 23.214 18.4658 23.0803 18.8958C22.9465 19.327 22.9915 19.792 23.0815 20.7208L23.164 21.567C23.4803 24.8383 23.639 26.4733 22.6815 27.1995C21.724 27.9258 20.284 27.2633 17.4065 25.9383L16.6603 25.5958C15.8428 25.2183 15.434 25.0308 15.0003 25.0308C14.5665 25.0308 14.1578 25.2183 13.3403 25.5958L12.5953 25.9383C9.71654 27.2633 8.27654 27.9258 7.32029 27.2008C6.36154 26.4733 6.52029 24.8383 6.83654 21.567L6.91904 20.722C7.00904 19.792 7.05404 19.327 6.91904 18.897C6.78654 18.4658 6.48779 18.117 5.89279 17.422L5.35029 16.787C3.25404 14.337 2.20654 13.1108 2.57154 11.9345C2.93654 10.7583 4.47529 10.4095 7.55029 9.71451L8.34529 9.53451C9.21904 9.33701 9.65529 9.23826 10.0065 8.97201C10.3578 8.70576 10.5815 8.30201 11.0315 7.49451L11.4415 6.75951Z" stroke="black" stroke-width="1.875"/>
</svg>
