<svg width="30" height="31" viewBox="0 0 30 31" fill="none" xmlns="http://www.w3.org/2000/svg">
<path d="M6.83743 8.01834V23.6608C6.83727 24.1075 6.92513 24.5499 7.096 24.9626C7.26687 25.3754 7.5174 25.7504 7.83327 26.0663C8.14914 26.3821 8.52415 26.6326 8.93689 26.8035C9.34962 26.9744 9.79198 27.0623 10.2387 27.0621H19.7612C20.6629 27.0621 21.5277 26.7039 22.1653 26.0663C22.803 25.4286 23.1612 24.5638 23.1612 23.6621V8.01709M4.11743 8.01834H25.8824" stroke="black" stroke-width="1.875" stroke-linecap="round" stroke-linejoin="round"/>
<path d="M10.9187 8.01827V5.97702C10.9184 5.70892 10.971 5.4434 11.0734 5.19566C11.1759 4.94793 11.3263 4.72285 11.5159 4.53334C11.7055 4.34383 11.9307 4.1936 12.1785 4.09127C12.4263 3.98894 12.6919 3.93652 12.96 3.93702H17.04C17.308 3.93652 17.5736 3.98894 17.8214 4.09127C18.0692 4.1936 18.2944 4.34383 18.484 4.53334C18.6736 4.72285 18.824 4.94793 18.9265 5.19566C19.029 5.4434 19.0815 5.70892 19.0812 5.97702V8.01827M12.28 21.7395V14.9408M17.7212 21.7395V14.9408" stroke="black" stroke-width="1.875" stroke-linecap="round" stroke-linejoin="round"/>
</svg>
