<svg width="30" height="30" viewBox="0 0 30 30" fill="none" xmlns="http://www.w3.org/2000/svg">
<path d="M6.83719 7.51834V23.1608C6.83702 23.6075 6.92489 24.0499 7.09576 24.4626C7.26663 24.8754 7.51716 25.2504 7.83302 25.5663C8.14889 25.8821 8.52391 26.1326 8.93664 26.3035C9.34937 26.4744 9.79173 26.5623 10.2384 26.5621H19.7609C20.6627 26.5621 21.5275 26.2039 22.1651 25.5663C22.8027 24.9286 23.1609 24.0638 23.1609 23.1621V7.51709M4.11719 7.51834H25.8822" stroke="black" stroke-width="1.875" stroke-linecap="round" stroke-linejoin="round"/>
<path d="M10.918 7.51827V5.47702C10.9176 5.20892 10.9702 4.9434 11.0727 4.69566C11.1752 4.44793 11.3256 4.22285 11.5152 4.03334C11.7048 3.84383 11.93 3.6936 12.1778 3.59127C12.4256 3.48894 12.6911 3.43652 12.9592 3.43702H17.0392C17.3073 3.43652 17.5729 3.48894 17.8207 3.59127C18.0685 3.6936 18.2936 3.84383 18.4833 4.03334C18.6729 4.22285 18.8233 4.44793 18.9257 4.69566C19.0282 4.9434 19.0808 5.20892 19.0805 5.47702V7.51827M12.2792 21.2395V14.4408M17.7205 21.2395V14.4408" stroke="black" stroke-width="1.875" stroke-linecap="round" stroke-linejoin="round"/>
</svg>
