<svg width="24" height="25" viewBox="0 0 24 25" fill="none" xmlns="http://www.w3.org/2000/svg">
<path d="M3.83743 5.01834V20.6608C3.83727 21.1075 3.92513 21.5499 4.096 21.9626C4.26687 22.3754 4.5174 22.7504 4.83327 23.0663C5.14914 23.3821 5.52415 23.6326 5.93689 23.8035C6.34962 23.9744 6.79198 24.0623 7.23868 24.0621H16.7612C17.6629 24.0621 18.5277 23.7039 19.1653 23.0663C19.803 22.4286 20.1612 21.5638 20.1612 20.6621V5.01709M1.11743 5.01834H22.8824" stroke="black" stroke-width="1.875" stroke-linecap="round" stroke-linejoin="round"/>
<path d="M7.9187 5.01827V2.97702C7.91837 2.70892 7.97096 2.4434 8.07344 2.19566C8.17592 1.94793 8.32628 1.72285 8.51591 1.53334C8.70554 1.34383 8.93071 1.1936 9.17851 1.09127C9.4263 0.988942 9.69186 0.936522 9.95995 0.937015H14.04C14.308 0.936522 14.5736 0.988942 14.8214 1.09127C15.0692 1.1936 15.2944 1.34383 15.484 1.53334C15.6736 1.72285 15.824 1.94793 15.9265 2.19566C16.029 2.4434 16.0815 2.70892 16.0812 2.97702V5.01827M9.27995 18.7395V11.9408M14.7212 18.7395V11.9408" stroke="black" stroke-width="1.875" stroke-linecap="round" stroke-linejoin="round"/>
</svg>
